<svg xmlns="http://www.w3.org/2000/svg" xmlns:xlink="http://www.w3.org/1999/xlink" width="200" height="60" viewBox="0 0 200 60">
    <defs>
        <path id="a" d="M0 58.827V0h55.854v58.827z"/>
    </defs>
    <g fill="none" fill-rule="evenodd">
        <path fill="#27282A" d="M198.464 31.322a2.268 2.268 0 0 0-2.267-2.098c-.89 0-1.698.517-2.068 1.322l-3.775 8.225-3.774-8.225a2.274 2.274 0 0 0-2.068-1.322c-1.192 0-2.181.916-2.267 2.098l-.878 12.061a1.738 1.738 0 0 0 1.74 1.86 1.74 1.74 0 0 0 1.74-1.648l.452-8.985 3.177 7.367a2.044 2.044 0 0 0 1.878 1.232c.818 0 1.557-.485 1.88-1.232l3.175-7.367.452 8.985a1.74 1.74 0 0 0 1.742 1.647 1.738 1.738 0 0 0 1.739-1.859l-.878-12.061zM168.681 28.249c.384.295.818.52 1.29.672.47.15.966.226 1.476.226s1.01-.076 1.487-.226c.479-.15.912-.373 1.29-.66.38-.29.698-.65.954-1.086.197-.338.22-.745.065-1.117a1.39 1.39 0 0 0-.924-.805l-.108-.028a1.355 1.355 0 0 0-1.538.652c-.083.151-.18.27-.285.353a1.491 1.491 0 0 1-.94.302 1.34 1.34 0 0 1-.912-.333 1.31 1.31 0 0 1-.28-.352 1.375 1.375 0 0 0-1.535-.652l-.144.038c-.414.108-.76.408-.925.803-.156.371-.132.778.072 1.13.249.422.57.787.957 1.083M92.463 39.348a4.846 4.846 0 0 1-.837 1.63 3.677 3.677 0 0 1-1.348 1.052c-.535.247-1.135.37-1.802.37-.682 0-1.286-.123-1.813-.37a3.696 3.696 0 0 1-1.336-1.052 4.83 4.83 0 0 1-.837-1.63c-.194-.631-.29-1.34-.29-2.126 0-.77.096-1.475.29-2.115.194-.639.472-1.186.837-1.641.364-.455.81-.809 1.336-1.063.527-.255 1.131-.382 1.813-.382.667 0 1.267.124 1.802.37.534.247.983.598 1.348 1.052.364.454.643 1.002.837 1.64.193.64.29 1.353.29 2.139 0 .786-.097 1.495-.29 2.126m1.685-8.367a7.1 7.1 0 0 0-2.557-1.594 9.046 9.046 0 0 0-3.115-.532 8.81 8.81 0 0 0-3.056.532 7.224 7.224 0 0 0-2.557 1.594c-.736.709-1.321 1.584-1.754 2.624-.435 1.04-.651 2.246-.651 3.617 0 1.372.21 2.577.627 3.618.419 1.04.992 1.91 1.72 2.611a7.158 7.158 0 0 0 2.557 1.584 9.049 9.049 0 0 0 3.114.532 9.288 9.288 0 0 0 3.173-.532 6.918 6.918 0 0 0 2.545-1.584c.713-.7 1.275-1.572 1.685-2.611.41-1.04.616-2.246.616-3.618 0-1.371-.209-2.577-.628-3.617-.418-1.04-.991-1.915-1.72-2.624M76.374 29.224h-5.05c-2.82 0-5.108 2.275-5.108 5.08v6.785c0 .69-.414 1.219-.94 1.529-.544.32-.857.919-.793 1.544a1.617 1.617 0 0 0 2.319 1.284 5.048 5.048 0 0 0 2.83-4.53v-7.022c0-.894.73-1.619 1.629-1.619h3.284v11.063c0 .892.604 1.724 1.489 1.877a1.81 1.81 0 0 0 2.137-1.775V31.01c0-.986-.804-1.786-1.797-1.786M126 29.224h-.038a2.01 2.01 0 0 0-1.621.82l-6.584 8.972v-8.012c0-.983-.801-1.78-1.79-1.78h-.023c-.988 0-1.79.797-1.79 1.78v12.243c0 1.102.9 1.996 2.007 1.996a2.01 2.01 0 0 0 1.638-.843l6.63-9.314v8.377c0 .983.8 1.78 1.789 1.78.988 0 1.789-.797 1.789-1.78V31.22A2.001 2.001 0 0 0 126 29.224M106.993 42.03c-.667.308-1.543.462-2.627.462-.372 0-.713-.007-1.022-.023-.31-.015-.597-.038-.86-.07V32.021c.279-.03.596-.05.952-.057.357-.008.69-.012 1-.012.96 0 1.689.131 2.185.393.495.262.744.717.744 1.363 0 .633-.237 1.097-.72 1.376-.3.171-.798.274-1.274.336-.72.093-1.25.713-1.25 1.435 0 .772.61 1.406 1.386 1.447.117.006.214.013.272.02.558.073 1.017.21 1.376.414.558.316.837.843.837 1.583 0 .832-.333 1.403-.999 1.71m2.022-5.454c1.24-.74 1.859-1.749 1.859-3.028 0-.847-.175-1.56-.522-2.138a3.955 3.955 0 0 0-1.453-1.399c-.62-.354-1.36-.605-2.22-.75a16.89 16.89 0 0 0-2.824-.22 31.526 31.526 0 0 0-3.179.169 1.934 1.934 0 0 0-1.725 1.926V43.35c0 .98.737 1.808 1.716 1.927.343.042.681.074 1.015.094.875.054 1.754.081 2.638.081 2.432 0 4.265-.424 5.496-1.271 1.232-.848 1.849-2.112 1.849-3.791 0-.832-.187-1.58-.558-2.243-.372-.662-1.07-1.186-2.092-1.571M145.273 38.193a4.411 4.411 0 0 0-.837-.855 6.647 6.647 0 0 0-1.01-.648c.65-.4 1.135-.89 1.452-1.467.317-.578.477-1.16.477-1.745 0-.77-.152-1.445-.453-2.023a3.958 3.958 0 0 0-1.268-1.433c-.543-.378-1.185-.663-1.928-.855a9.64 9.64 0 0 0-2.418-.29c-1.115 0-2.111.12-2.987.36-.295.08-.575.168-.84.265a1.484 1.484 0 0 0-.877 1.955l.05.122c.307.753 1.16 1.098 1.929.819.154-.057.311-.109.47-.157.636-.193 1.38-.29 2.231-.29.76 0 1.35.132 1.767.394.419.263.627.655.627 1.179 0 .37-.077.678-.231.924a1.772 1.772 0 0 1-.64.601c-.272.155-.59.262-.953.324a7.01 7.01 0 0 1-1.174.092h-.613c-.822 0-1.487.663-1.487 1.48s.665 1.479 1.487 1.479h.358c.558 0 1.073.027 1.546.08.472.055.883.155 1.231.302a1.9 1.9 0 0 1 .826.635c.2.277.302.64.302 1.086 0 .725-.314 1.233-.942 1.526-.627.293-1.453.439-2.475.439-.418 0-.837-.038-1.255-.115-.419-.078-.822-.17-1.209-.278-.111-.03-.294-.09-.504-.16a1.493 1.493 0 0 0-1.873.879l-.03.081a1.48 1.48 0 0 0 .904 1.922c.443.155.866.292 1.073.34.478.114.978.208 1.5.285.49.072.982.115 1.477.12 2.252.02 4.003-.368 5.25-1.167 1.217-.778 1.825-2.022 1.825-3.733 0-.508-.07-.967-.209-1.375a3.984 3.984 0 0 0-.569-1.098M176.367 29.224h-.038a2.01 2.01 0 0 0-1.622.82l-6.583 8.972v-8.012c0-.983-.802-1.78-1.79-1.78h-.024c-.988 0-1.789.797-1.789 1.78v12.243c0 1.102.898 1.996 2.007 1.996a2.01 2.01 0 0 0 1.638-.843l6.629-9.314v8.377c0 .983.8 1.78 1.79 1.78.988 0 1.788-.797 1.788-1.78V31.22a2 2 0 0 0-2.006-1.996M152.8 38.76l1.927-5.96c.137-.423.738-.423.874 0l1.921 5.96H152.8zm5.992-6.949a3.833 3.833 0 0 0-3.631-2.587 3.832 3.832 0 0 0-3.63 2.587l-3.768 11.024c-.359 1.05.224 2.178 1.322 2.378a1.772 1.772 0 0 0 2.014-1.196l.742-2.292h6.636l.742 2.3a1.77 1.77 0 0 0 1.685 1.218h.005c1.214 0 2.067-1.185 1.677-2.327l-3.794-11.105z"/>
        <path fill="#FEFEFE" d="M22.824 57.398c-1.397 0-2.818-.106-4.227-.314-4.255-.629-10.315-2.486-15.024-7.76-1.28-1.433-1.8-3.775-.249-5.296.546-.535 1.264-.818 2.076-.818 1.004 0 2.12.439 3.142 1.237a10.249 10.249 0 0 0 2.385 1.494l.07.034a9.735 9.735 0 0 0 4.42 1.057c5.417 0 9.824-4.382 9.824-9.77 0-5.387-4.407-9.77-9.825-9.77-1.433 0-2.83.314-4.154.931-.131.058-.217.101-.303.144 0 0-.195.096-.243.118a9.93 9.93 0 0 0-1.656 1.033c-.608.473-1.124 1.032-1.672 1.624-.857.927-1.884 1.437-2.893 1.437-.7 0-1.354-.244-1.945-.724-1.63-1.324-1.438-3.838-.312-5.504 2.453-3.628 7.253-5.971 12.23-5.971.585 0 1.182.031 1.776.093.369.037.703.055 1.013.055 1.533 0 3.57-.407 3.57-3.916l.046-10.634c0-3.016 1.54-4.749 4.225-4.749 2.383 0 3.984 1.853 3.984 4.61 0 2.932.008 17.641.008 17.641.019 0 .023-7.831.023-10.271 0-3.059 1.668-5.036 4.249-5.036 2.458 0 4.176 1.915 4.176 4.657v15.463l.019-7.019c0-2.793 1.776-4.9 4.133-4.9 2.568 0 4.362 1.995 4.362 4.85l-.04 17.072c0 10.243-10.618 18.901-23.187 18.902h-.001z"/>
        <path fill="#FFE42B" d="M46.15 31.677l6.868 4.402c1.78 1.142 1.61 3.784-.304 4.689l-7.603 3.369s1.489-4.67 1.04-12.46M25.35 37.215c0 5.358-4.368 9.702-9.755 9.702-5.388 0-9.756-4.344-9.756-9.702s4.368-9.702 9.756-9.702c5.387 0 9.755 4.344 9.755 9.702"/>
        <path fill="#FFFCE9" d="M15.8 29.004a9.175 9.175 0 0 0-4.424.788 9.885 9.885 0 0 1 2.23-.106c5.128.354 9.06 4.532 8.78 9.331-.118 2.03-.976 3.84-2.308 5.234 2.294-1.343 3.877-3.668 4.037-6.411.264-4.545-3.458-8.501-8.315-8.836"/>
        <path fill="#F7A632" d="M20.233 44.271c-5.377.636-10.22-2.898-10.818-7.893-.32-2.669.647-5.208 2.428-7.097-3.307 1.714-5.376 5.148-4.936 8.827.58 4.847 5.286 8.275 10.513 7.657a10.011 10.011 0 0 0 4.881-1.957c-.658.218-1.348.378-2.068.463"/>
        <mask id="b" fill="#fff">
            <use xlink:href="#a"/>
        </mask>
        <path fill="#27282A" d="M52.658 38.41c-.012.194-.1.673-.593.908l-4.735 2.131c.185-.985.283-1.989.283-3.008l.01-4.102 4.53 3.075c.493.316.517.802.505.996m-29.7 17.242h-.001c-1.31 0-2.645-.1-3.968-.295-3.97-.587-9.616-2.312-13.98-7.2-.798-.893-1.135-2.294-.32-3.093.247-.242.557-.36.95-.36.644 0 1.417.327 2.143.894.88.726 1.782 1.275 2.702 1.684a11.314 11.314 0 0 0 5.11 1.223c6.26 0 11.353-5.065 11.353-11.29 0-6.225-5.093-11.29-11.352-11.29-1.719 0-3.343.394-4.804 1.076-.16.069-.313.15-.47.225-.045.024-.093.043-.138.067-.664.334-1.3.724-1.885 1.18-.706.551-1.286 1.178-1.852 1.79-.54.583-1.162.917-1.707.917-.325 0-.63-.119-.93-.363-.906-.737-.704-2.322.004-3.369 2.15-3.181 6.406-5.237 10.84-5.237.525 0 1.06.028 1.598.084.428.042.812.063 1.173.063 3.312 0 5.136-1.945 5.136-5.47l.045-10.563c0-2.823 1.491-3.15 2.613-3.15 1.75 0 2.374 1.553 2.374 3.005l.003 8.768c.002 2.927.004 5.853.004 8.767 0 .876.714 1.587 1.596 1.587.881 0 1.596-.71 1.596-1.586 0 0 .005-7.785.005-10.211 0-.804.19-3.427 2.636-3.427 1.892 0 2.564 1.643 2.564 3.05V28.5c0 .877.714 1.588 1.596 1.588.882 0 1.596-.711 1.596-1.588v-6.977c0-1.907 1.061-3.292 2.522-3.292 2.03 0 2.75 1.749 2.75 3.242l-.04 16.966c0 9.33-9.828 17.213-21.461 17.214m-11.01-25.686l.114-.054a8.674 8.674 0 0 1 3.43-.705c2.609 0 5.054 1.156 6.54 3.093 2.06 2.683 2.223 6.175.611 8.981-.035.061-.073.122-.11.182a8.573 8.573 0 0 1-.245.377 8.164 8.164 0 0 1-6.694 3.49c-4.5 0-8.16-3.64-8.16-8.115 0-3.074 1.728-5.754 4.268-7.13.082-.04.163-.081.246-.119m41.933 4.78l-6.251-4.008.021-9.262c0-3.72-2.499-6.42-5.942-6.42-.916 0-1.769.22-2.522.617v-2.545c0-3.607-2.42-6.225-5.756-6.225-.982 0-1.874.21-2.648.601V6.18c0-3.639-2.289-6.18-5.566-6.18-3.581 0-5.806 2.423-5.806 6.318l-.044 10.563c0 2.147-.735 2.301-1.944 2.301a8.63 8.63 0 0 1-.848-.046c-.64-.066-1.287-.1-1.923-.1-5.552 0-10.72 2.544-13.49 6.64-1.764 2.61-1.495 5.876.625 7.6.839.68 1.818 1.049 2.839 1.074a11.182 11.182 0 0 0-.385 2.865c0 1.54.313 3.006.877 4.344a4.406 4.406 0 0 0-2.671 1.244c-1.974 1.934-1.899 5.141.173 7.462 5 5.601 11.406 7.568 15.898 8.233 1.478.218 2.971.329 4.438.329h.002c10.397 0 19.536-5.653 23.082-13.365l7.36-3.26a4.226 4.226 0 0 0 2.443-3.588 4.215 4.215 0 0 0-1.962-3.869" mask="url(#b)"/>
        <path fill="#1C1B1A" d="M40.101 35.582a2.486 2.486 0 0 1-2.492 2.48 2.486 2.486 0 0 1-2.493-2.48 2.486 2.486 0 0 1 2.493-2.48 2.486 2.486 0 0 1 2.492 2.48" mask="url(#b)"/>
    </g>
</svg>
