<?xml version="1.0" encoding="UTF-8"?>
<svg width="676px" height="320px" viewBox="0 0 676 320" version="1.1" xmlns="http://www.w3.org/2000/svg" xmlns:xlink="http://www.w3.org/1999/xlink">
    <!-- Generator: Sketch 55 (78076) - https://sketchapp.com -->
    <title>sprite-new</title>
    <desc>Created with Sketch.</desc>
    <defs>
        <linearGradient x1="43.8546317%" y1="0%" x2="50%" y2="100%" id="linearGradient-1">
            <stop stop-color="#5760CE" offset="0%"></stop>
            <stop stop-color="#D53086" offset="46.8165278%"></stop>
            <stop stop-color="#FEB952" offset="100%"></stop>
        </linearGradient>
        <linearGradient x1="50%" y1="-58.6303711%" x2="50%" y2="160.986328%" id="linearGradient-2">
            <stop stop-color="#5760CE" offset="0%"></stop>
            <stop stop-color="#D53086" offset="46.8165278%"></stop>
            <stop stop-color="#FEB952" offset="100%"></stop>
        </linearGradient>
        <linearGradient x1="52.4698035%" y1="-163.012695%" x2="52.4698035%" y2="266.503906%" id="linearGradient-3">
            <stop stop-color="#5760CE" offset="0%"></stop>
            <stop stop-color="#D53086" offset="46.8165278%"></stop>
            <stop stop-color="#FEB952" offset="100%"></stop>
        </linearGradient>
    </defs>
    <g id="sprite-new" stroke="none" stroke-width="1" fill="none" fill-rule="evenodd">
        <g id="location" transform="translate(26.000000, 28.000000)" fill="#FF0142" fill-rule="nonzero">
            <path d="M16.6152083,3.38458333 L11.1595833,15.2877083 L9.67166667,10.328125 L4.71208333,8.84020833 L16.6152083,3.38458333 L16.6152083,3.38458333 Z M20,0 L0,9.16666667 L8.33333333,11.6666667 L10.8333333,20 L20,0 L20,0 Z" id="Shape"></path>
        </g>
        <g id="help" transform="translate(126.000000, 28.000000)" fill="#FF0142" fill-rule="nonzero">
            <path d="M17.0711364,2.89617978 C13.1656818,-0.965168539 6.83409091,-0.965168539 2.92886364,2.89617978 C-0.976363636,6.75752809 -0.976363636,13.0182022 2.92886364,16.8795506 C6.83409091,20.7408989 13.1656818,20.7408989 17.0711364,16.8795506 C20.9763636,13.0182022 20.9763636,6.75752809 17.0711364,2.89617978 Z M15.1072727,3.56674157 L12.5072727,6.13775281 C10.9922727,5.14516854 9.00818182,5.14516854 7.49318182,6.13775281 L4.89272727,3.56674157 C7.87068182,1.20831461 12.1293182,1.20831461 15.1072727,3.56674157 Z M12.7272727,9.88786517 C12.7272727,11.3770787 11.5061364,12.5844944 10,12.5844944 C8.49386364,12.5844944 7.27272727,11.3770787 7.27272727,9.88786517 C7.27272727,8.39842697 8.49386364,7.19123596 10,7.19123596 C11.5061364,7.19123596 12.7272727,8.39842697 12.7272727,9.88786517 Z M3.60704545,4.83797753 L6.20727273,7.40898876 C5.20340909,8.90696629 5.20340909,10.868764 6.20727273,12.3667416 L3.60704545,14.9375281 C1.22181818,11.9930337 1.22181818,7.78247191 3.60704545,4.83797753 Z M4.89272727,16.2089888 L7.49295455,13.6379775 C9.00795455,14.6303371 10.9920455,14.6303371 12.5070455,13.6379775 L15.1070455,16.2089888 C12.1293182,18.567191 7.87068182,18.567191 4.89272727,16.2089888 Z M16.3929545,14.9375281 L13.7927273,12.3667416 C14.7963636,10.868764 14.7963636,8.90696629 13.7927273,7.40898876 L16.3929545,4.83797753 C18.7779545,7.78247191 18.7779545,11.9930337 16.3929545,14.9375281 Z" id="Shape"></path>
        </g>
        <g id="map" transform="translate(80.000000, 28.000000)" fill="#FF0142" fill-rule="nonzero">
            <path d="M13.3333333,4.16666667 L6.68375,0 L0,4.173125 L0,20 L6.66666667,15.8333333 L13.3333333,20 L20,15.8333333 L20,0 L13.3333333,4.16666667 Z M1.66666667,16.9929167 L1.66666667,5.0975 L5.83333333,2.49583333 L5.83333333,14.3883333 L5.78333333,14.419375 L1.66666667,16.9929167 Z M7.5,14.3883333 L7.5,2.47833333 L12.4483333,5.57895833 L12.5,5.61166667 L12.5,17.5139583 L7.55,14.42 L7.5,14.3883333 Z M18.3333333,14.9095833 L14.1666667,17.51375 L14.1666667,5.61166667 L14.2166667,5.58041667 L18.3333333,3.00708333 L18.3333333,14.9095833 Z" id="Shape"></path>
        </g>
        <g id="Group-8" transform="translate(30.000000, 116.000000)">
            <g id="Group-7">
                <path d="M110,0 C100.05875,0 92,8.05875 92,18 C92,27.94125 100.05875,36 110,36 C119.94125,36 128,27.94125 128,18 C128,8.05875 119.94125,0 110,0 Z" id="Shape-Copy-7" fill="url(#linearGradient-1)" fill-rule="nonzero" opacity="0.2"></path>
                <g id="Group" transform="translate(92.000000, 0.000000)" fill-rule="nonzero">
                    <g id="Shape-Copy-7">
                        <path d="M18,0 C8.05875,0 0,8.05875 0,18 C0,27.94125 8.05875,36 18,36 C27.94125,36 36,27.94125 36,18 C36,8.05875 27.94125,0 18,0 Z" fill="url(#linearGradient-1)" opacity="0.100000001"></path>
                        <path d="M23,14.0000165 C23,14.5523064 22.5522734,15 21.9999835,15 C21.4477266,15 21,14.5523064 21,14.0000165 C21,13.4477266 21.4477266,13 21.9999835,13 C22.5522734,13 23,13.4477266 23,14.0000165 M18.0000159,10 C15.8273304,10 15.5548953,10.0092093 14.7016102,10.0481422 C13.8501035,10.0869798 13.268555,10.2222288 12.759696,10.4200055 C12.2336253,10.6244192 11.7874845,10.8979658 11.3427093,11.3427093 C10.8979658,11.7874845 10.6244192,12.2336253 10.4200055,12.759696 C10.2222288,13.268555 10.0869798,13.8501035 10.0481422,14.7016102 C10.0092093,15.5548953 10,15.8273304 10,18.0000159 C10,20.1726696 10.0092093,20.4451047 10.0481422,21.2983898 C10.0869798,22.1498965 10.2222288,22.731445 10.4200055,23.240304 C10.6244192,23.7663747 10.8979658,24.2125155 11.3427093,24.6572907 C11.7874845,25.1020342 12.2336253,25.3755808 12.759696,25.5800262 C13.268555,25.7777712 13.8501035,25.9130202 14.7016102,25.9518578 C15.5548953,25.9907907 15.8273304,26 18.0000159,26 C20.1726696,26 20.4451047,25.9907907 21.2983898,25.9518578 C22.1498965,25.9130202 22.731445,25.7777712 23.240304,25.5800262 C23.7663747,25.3755808 24.2125155,25.1020342 24.6572907,24.6572907 C25.1020342,24.2125155 25.3755808,23.7663747 25.5800262,23.240304 C25.7777712,22.731445 25.9130202,22.1498965 25.9518578,21.2983898 C25.9907907,20.4451047 26,20.1726696 26,18.0000159 C26,15.8273304 25.9907907,15.5548953 25.9518578,14.7016102 C25.9130202,13.8501035 25.7777712,13.268555 25.5800262,12.759696 C25.3755808,12.2336253 25.1020342,11.7874845 24.6572907,11.3427093 C24.2125155,10.8979658 23.7663747,10.6244192 23.240304,10.4200055 C22.731445,10.2222288 22.1498965,10.0869798 21.2983898,10.0481422 C20.4451047,10.0092093 20.1726696,10 18.0000159,10 Z M18.0000168,11.0666667 C20.2581478,11.0666667 20.5256389,11.0752943 21.4174101,11.115982 C22.2419729,11.1535811 22.689772,11.2913551 22.9877788,11.407174 C23.3825363,11.5605919 23.6642614,11.7438542 23.9601868,12.0398132 C24.2561458,12.3357386 24.4394081,12.6174637 24.592826,13.0122212 C24.7086449,13.310228 24.8464189,13.7580271 24.884018,14.5825899 C24.9247057,15.4743611 24.9333333,15.7418522 24.9333333,18.0000168 C24.9333333,20.2581478 24.9247057,20.5256389 24.884018,21.4174101 C24.8464189,22.2419729 24.7086449,22.689772 24.592826,22.9877788 C24.4394081,23.3825363 24.2561458,23.6642614 23.9601868,23.9601868 C23.6642614,24.2561458 23.3825363,24.4394081 22.9877788,24.592826 C22.689772,24.7086449 22.2419729,24.8464189 21.4174101,24.884018 C20.5257732,24.9247057 20.2583156,24.9333333 18.0000168,24.9333333 C15.7416844,24.9333333 15.4742604,24.9247057 14.5825899,24.884018 C13.7580271,24.8464189 13.310228,24.7086449 13.0122212,24.592826 C12.6174637,24.4394081 12.3357386,24.2561458 12.0398132,23.9601868 C11.7438878,23.6642614 11.5605919,23.3825363 11.407174,22.9877788 C11.2913551,22.689772 11.1535811,22.2419729 11.115982,21.4174101 C11.0752943,20.5256389 11.0666667,20.2581478 11.0666667,18.0000168 C11.0666667,15.7418522 11.0752943,15.4743611 11.115982,14.5825899 C11.1535811,13.7580271 11.2913551,13.310228 11.407174,13.0122212 C11.5605919,12.6174637 11.7438542,12.3357386 12.0398132,12.0398132 C12.3357386,11.7438542 12.6174637,11.5605919 13.0122212,11.407174 C13.310228,11.2913551 13.7580271,11.1535811 14.5825899,11.115982 C15.4743611,11.0752943 15.7418522,11.0666667 18.0000168,11.0666667 L18.0000168,11.0666667 Z" id="Mask" fill="url(#linearGradient-2)"></path>
                        <g id="Group-4" transform="translate(14.000000, 14.000000)" fill="url(#linearGradient-3)">
                            <path d="M4.00001546,0 C6.20915321,0 8,1.79084679 8,4.00001546 C8,6.20915321 6.20915321,8 4.00001546,8 C1.79084679,8 0,6.20915321 0,4.00001546 C0,1.79084679 1.79084679,0 4.00001546,0 Z M4.00001786,7 C5.65686199,7 7,5.65686199 7,4.00001786 C7,2.34313801 5.65686199,1 4.00001786,1 C2.34313801,1 1,2.34313801 1,4.00001786 C1,5.65686199 2.34313801,7 4.00001786,7 Z" id="Combined-Shape"></path>
                        </g>
                    </g>
                </g>
                <path d="M64,0 C54.05875,0 46,8.05875 46,18 C46,27.94125 54.05875,36 64,36 C73.94125,36 82,27.94125 82,18 C82,8.05875 73.94125,0 64,0 Z" id="Shape-Copy-2" fill="#EE820A" fill-rule="nonzero" opacity="0.2"></path>
                <path d="M18,0 C8.05875,0 0,8.05875 0,18 C0,27.94125 8.05875,36 18,36 C27.94125,36 36,27.94125 36,18 C36,8.05875 27.94125,0 18,0 Z" id="Shape-Copy" fill="#527397" fill-rule="nonzero" opacity="0.199275362"></path>
                <path d="M23.3518518,19.6057324 C23.3518518,19.6057324 24.565214,20.7228795 24.8639097,21.2414598 C24.8724847,21.2521246 24.8767722,21.2627895 24.8796306,21.268122 C25.0011097,21.4587569 25.029693,21.6067322 24.969668,21.7173804 C24.8696264,21.9013498 24.5266265,21.9920013 24.4094348,22 C24.4094348,22 22.3257104,22 22.2656855,22 C22.1170522,22 21.8054939,21.964006 21.428194,21.7213798 C21.1380733,21.532078 20.85224,21.2214631 20.5735526,20.9188469 C20.1576652,20.4682553 19.7975153,20.0789868 19.4345071,20.0789868 C19.3887738,20.0789868 19.3416113,20.0856524 19.2987363,20.0989835 C19.0243364,20.1816364 18.6727615,20.5469088 18.6727615,21.52008 C18.6727615,21.8240293 18.4155115,21.9986669 18.2340074,21.9986669 C18.2340074,21.9986669 17.2979035,21.9986669 17.2521702,21.9986669 C16.9177453,21.9986669 15.1755916,21.8893518 13.6320921,20.3709382 C11.7427342,18.5112481 10.0420264,14.7812031 10.0277347,14.7465422 C9.92054726,14.5052491 10.142068,14.3759373 10.3835971,14.3759373 L12.548784,14.3759373 C12.8374756,14.3759373 12.9318006,14.53991 12.9975422,14.6852191 C13.0747172,14.8545242 13.3576921,15.5277454 13.8221712,16.2849525 C14.5753418,17.5194134 15.0369625,18.0206632 15.4071166,18.0206632 C15.4771457,18.0206632 15.5414582,18.0033328 15.6057707,17.9726712 C16.0888289,17.7220463 15.9987914,16.1156474 15.9773539,15.7823696 C15.9773539,15.7197134 15.9759247,15.0638227 15.728679,14.7492085 C15.5514623,14.5212465 15.2499083,14.4345942 15.066975,14.4025996 C15.1141375,14.3372771 15.2198958,14.2372938 15.3513791,14.1773038 C15.6829456,14.0226629 16.2803371,14 16.8734411,14 L17.2035785,14 C17.8467034,14.0079987 18.0124867,14.0466589 18.2454408,14.1013164 C18.7170656,14.2066322 18.7270698,14.4905849 18.685624,15.4624229 C18.6727615,15.7383769 18.659899,16.0503249 18.659899,16.4182636 C18.659899,16.4982503 18.6556115,16.5835694 18.6556115,16.674221 C18.6413198,17.1688052 18.6241698,17.730045 18.9986114,17.9606732 C19.047203,17.9886686 19.1029405,18.0046659 19.1615363,18.0046659 C19.2915905,18.0046659 19.683182,18.0046659 20.7436234,16.3076154 C21.2081024,15.5584069 21.5682523,14.6745542 21.5939773,14.6092318 C21.6154148,14.5745709 21.6782981,14.467922 21.7526148,14.4265956 C21.8112106,14.3946009 21.8898147,14.3879353 21.9298314,14.3879353 L24.4751765,14.3879353 C24.7524348,14.3879353 24.9425139,14.4265956 24.978243,14.5265789 C25.0411263,14.6852191 24.9668097,15.1691385 23.8048975,16.6368939 C23.6091017,16.8795201 23.4361726,17.0914848 23.2861102,17.2754541 C22.2328146,18.5632395 22.2328146,18.6285619 23.3518518,19.6057324 Z" id="Path" fill="#527397"></path>
                <g id="odnoklassniki-logo" transform="translate(59.000000, 10.000000)" fill="#EE820A" fill-rule="nonzero">
                    <path d="M4.26222118,11.2356118 C3.10029337,11.1053137 2.05264324,10.7976276 1.15568896,10.0433496 C1.0443938,9.9495079 0.92948821,9.85904179 0.827925484,9.75422939 C0.435331392,9.34881972 0.39577373,8.88450581 0.706426952,8.40601438 C0.972185368,7.99655399 1.41830788,7.88701574 1.88201158,8.12212634 C1.97180119,8.16769696 2.05735248,8.22457583 2.13929336,8.28567421 C3.8109185,9.5206378 6.10730354,9.55473137 7.78520767,8.34120284 C7.95144404,8.20415345 8.12913956,8.09242106 8.33509056,8.0353734 C8.7355334,7.92482247 9.10897656,8.08296937 9.32387512,8.45968644 C9.56938378,8.88990677 9.56624429,9.30983153 9.26375376,9.64384724 C8.79973611,10.1559259 8.24169053,10.5263981 7.62163988,10.7849691 C7.03533883,11.0293626 6.39315473,11.1524033 5.75756358,11.2340928 C5.85347521,11.3463316 5.89868396,11.4015226 5.95864836,11.4663342 C6.82169606,12.3986751 7.68851117,13.3271342 8.54873333,14.2623444 C8.84180537,14.5810011 8.90302556,14.9761152 8.74165542,15.3467562 C8.56521569,15.7518283 8.17026697,16.018332 7.78301003,15.9898082 C7.53765834,15.9715799 7.346306,15.840269 7.17630224,15.65613 C6.5250136,14.9514733 5.86148093,14.2598127 5.22337817,13.5418224 C5.03767693,13.3330415 4.94835824,13.372536 4.7844765,13.5538058 C4.12926349,14.2790536 3.46337619,14.993162 2.79356452,15.7032197 C2.49280071,16.0220452 2.13489806,16.0794304 1.78609995,15.8973167 C1.41532536,15.7040636 1.17939217,15.2971349 1.19760125,14.8881808 C1.21015924,14.6115503 1.33668096,14.4002377 1.51327767,14.2106977 C2.36737781,13.2937157 3.21912333,12.3743708 4.0711828,11.4558698 C4.12753677,11.3947714 4.18012334,11.3299599 4.26222118,11.2356118 Z" id="Shape"></path>
                    <path d="M4.97067097,7.99997554 C2.78199937,7.99252663 0.987305232,6.18045603 1.00006765,3.99113971 C1.01266432,1.77765583 2.80851868,-0.00610893141 5.01873721,1.57248627e-05 C7.23343088,0.00597484988 9.01105321,1.81539695 8.99994825,4.05188968 C8.98867755,6.23673665 7.18155249,8.00758997 4.97067097,7.99997554 Z M6.99998827,3.99576562 C6.99609696,2.88516608 6.11124736,2.00101588 5.00239377,2.00000117 C3.88423487,1.99881734 2.99143347,2.89903378 3.00006202,4.01978041 C3.0083522,5.12615199 3.90081523,6.00404482 5.01271419,5.99998598 C6.12122941,5.99609626 7.00371039,5.10619604 6.99998827,3.99576562 Z" id="Shape"></path>
                </g>
            </g>
        </g>
        <path d="M130.168107,80.8033909 C129.899276,81.0655364 129.467366,81.0655364 129.200512,80.8033909 C128.933657,80.5412455 128.932669,80.1177046 129.200512,79.8555592 L137.016388,72.1966091 C137.283242,71.9344636 137.715152,71.9344636 137.983983,72.1966091 L145.799859,79.8555592 C146.066714,80.1177046 146.066714,80.5412455 145.799859,80.8033909 C145.532016,81.0655364 145.099118,81.0655364 144.833252,80.8033909 L137.499691,73.8183893 L130.168107,80.8033909 Z" id="Shape" stroke="#2D3E51" stroke-width="0.5" fill="#2D3E51" fill-rule="nonzero"></path>
        <g id="search" transform="translate(27.000000, 66.000000)" fill="#2A3246" fill-rule="nonzero">
            <path d="M19.5121348,18.4481818 L14.4107865,13.2888636 C15.5179775,11.8890909 16.1797753,10.1136364 16.1797753,8.18181818 C16.1797753,3.66318182 12.5579775,0 8.08988764,0 C3.62202247,0 0,3.66318182 0,8.18181818 C0,12.7004545 3.62202247,16.3636364 8.08988764,16.3636364 C10,16.3636364 11.7555056,15.6940909 13.1395506,14.5743182 L18.2408989,19.7336364 C18.4164045,19.9111364 18.6465169,20 18.8764045,20 C19.1065169,20 19.3366292,19.9111364 19.5121348,19.7336364 C19.8631461,19.3788636 19.8631461,18.8029545 19.5121348,18.4481818 Z M8.08988764,14.5454545 C4.61483146,14.5454545 1.79775281,11.6963636 1.79775281,8.18181818 C1.79775281,4.66727273 4.61483146,1.81818182 8.08988764,1.81818182 C11.5651685,1.81818182 14.3820225,4.66727273 14.3820225,8.18181818 C14.3820225,11.6963636 11.5651685,14.5454545 8.08988764,14.5454545 Z" id="Shape"></path>
        </g>
        <g id="Group-2" transform="translate(264.000000, 32.000000)" fill-rule="nonzero">
            <path d="M2,3 L2,13 L12,13 L12,3 L2,3 Z M14,9 L14,13 C14,14.1045695 13.1045695,15 12,15 L2,15 C0.8954305,15 1.3527075e-16,14.1045695 0,13 L0,3 C-1.3527075e-16,1.8954305 0.8954305,1 2,1 L6,1 L6,2.99560547 L12,3 L12,9 L14,9 Z M14,3 C14,1.8954305 13.1045695,1 12,1 L14,1 L14,3 Z" id="Rectangle" fill="#FF0142"></path>
            <rect id="Rectangle" stroke="#FF0142" fill="#D8D8D8" x="9.5" y="0.5" width="5" height="1"></rect>
            <rect id="Rectangle-Copy-8" stroke="#FF0142" fill="#D8D8D8" x="13.5" y="0.5" width="1" height="5"></rect>
            <rect id="Rectangle" fill="#FF0142" transform="translate(10.181981, 4.681981) rotate(45.000000) translate(-10.181981, -4.681981) " x="9.18198052" y="-0.318019485" width="2" height="10"></rect>
        </g>
        <path d="M319,34 C312.439,34 309,38.7457143 309,39.5 C309,40.2523214 312.439,45 319,45 C325.56,45 329,40.2523214 329,39.5 C329,38.7457143 325.56,34 319,34 L319,34 Z M319,43.7300893 C316.545,43.7300893 314.555,41.8365179 314.555,39.5 C314.555,37.1634821 316.545,35.2679464 319,35.2679464 C321.455,35.2679464 323.444,37.1634821 323.444,39.5 C323.444,41.8365179 321.455,43.7300893 319,43.7300893 L319,43.7300893 Z M319,39.5 C318.593,39.0609821 319.663,37.3844643 319,37.3844643 C317.772,37.3844643 316.777,38.3322321 316.777,39.5 C316.777,40.6677679 317.772,41.6155357 319,41.6155357 C320.227,41.6155357 321.223,40.6677679 321.223,39.5 C321.223,38.9627679 319.346,39.8722321 319,39.5 L319,39.5 Z" id="Shape" fill="#96A0AA"></path>
        <path d="M377.521484,31.4776001 C377.131958,31.086853 376.498108,31.086792 376.107483,31.477478 L360.478516,47.1084595 C360.087891,47.4990845 360.087891,48.1328736 360.478638,48.522461 C360.869263,48.913147 361.502014,48.913086 361.892639,48.5224 L377.521423,32.8916016 C377.91217,32.5009766 377.91217,31.8682251 377.521484,31.4776001 L377.521484,31.4776001 Z M362.108398,43.4973145 L364.667725,40.9388428 C364.598144,40.6357422 364.554688,40.3234863 364.554688,40 C364.554688,37.6210938 366.544922,35.6914062 369,35.6914062 C369.286133,35.6914062 369.564453,35.7229003 369.835449,35.7730712 L371.037598,34.571411 C370.394043,34.467041 369.719238,34.4003906 369,34.4003906 C362.439453,34.4003906 359,39.2324219 359,40 C359,40.4234619 360.057373,42.0908203 362.108398,43.4973145 L362.108398,43.4973145 Z M375.895019,36.5046387 L373.333008,39.065918 C373.401856,39.3674316 373.444336,39.6784668 373.444336,40 C373.444336,42.3789062 371.455078,44.3066406 369,44.3066406 C368.716065,44.3066406 368.440185,44.2749023 368.171143,44.2255859 L366.967041,45.4291992 C367.609375,45.5330811 368.282715,45.5996094 369,45.5996094 C375.560547,45.5996094 379,40.765625 379,40 C379,39.5756836 377.943848,37.9101562 375.895019,36.5046387 L375.895019,36.5046387 Z" id="Shape" fill="#96A0AA"></path>
        <g id="call-phone" transform="translate(409.000000, 32.000000)" fill="#808490" fill-rule="nonzero">
            <path d="M8.07459953,4.29903875 C8.54894956,4.83047453 8.39855185,5.43253475 7.97913441,6.00379523 C7.87969477,6.13923531 7.76507551,6.27268459 7.62664046,6.41973458 C7.56019345,6.4903166 7.50838118,6.54339881 7.40000529,6.65304143 C7.15387617,6.9020475 6.9469732,7.11127859 6.779285,7.28074623 C6.69796799,7.36292614 7.25315732,8.48422015 8.33062868,9.57428575 C9.40751472,10.6637591 10.5168825,11.2252717 10.5985822,11.1426526 L11.2188744,10.5153807 C11.5604644,10.1697981 11.7413621,10.0030634 11.9899411,9.83823717 C12.5067102,9.49558107 13.070371,9.40246552 13.5457599,9.83209705 C15.0979344,10.9542562 15.9762912,11.6428722 16.4066027,12.0947686 C17.2459196,12.9761865 17.135922,14.3329463 16.4113693,15.106952 C16.1601198,15.37535 15.8415475,15.697507 15.4652847,16.0641166 C13.189274,18.3657377 8.38583002,16.9650557 4.70451065,13.2407066 C1.02235656,9.51551313 -0.362763729,4.66023141 1.90847733,2.36346644 C2.31623035,1.94487581 2.45067028,1.80906709 2.84778711,1.41358853 C3.58714557,0.677280215 4.99148303,0.561989504 5.84517347,1.41431686 C6.29421777,1.86264416 7.01011333,2.79360225 8.07459953,4.29903875 Z M12.3632067,11.6723397 L11.7427911,12.2997364 C10.6882165,13.3661774 8.89225088,12.4571395 7.18617305,10.7311199 C5.47892484,9.00391631 4.58050861,7.18942045 5.63543877,6.12329581 C5.80290139,5.95405613 6.00960882,5.74502277 6.25554965,5.49620723 C6.35478085,5.39581616 6.40017175,5.34931274 6.45465433,5.29143966 C6.52888502,5.21258955 6.58988275,5.143337 6.6387208,5.08205618 C5.69532785,3.75386805 5.05402432,2.92394366 4.70830349,2.57877484 C4.52975949,2.40051593 4.12996761,2.43333731 3.98319625,2.57950317 C3.591749,2.96933555 3.46308151,3.09931306 3.05697271,3.5161828 C1.59633845,4.99325251 2.7145034,8.91277192 5.84896631,12.0838725 C8.98244689,15.2539792 12.8599057,16.3846443 14.3316555,14.8965284 C14.7020655,14.5354335 15.0039087,14.2301938 15.2362382,13.9820073 C15.4041188,13.8026683 15.4341205,13.4326132 15.2410047,13.2298105 C14.9193528,12.8920242 14.1318737,12.2714708 12.7721502,11.2845785 C12.6730389,11.3652063 12.5511999,11.4821493 12.3632067,11.6723397 Z" id="Shape"></path>
        </g>
        <g id="time" transform="translate(455.000000, 31.000000)" fill="#808490" fill-rule="nonzero">
            <path d="M9,18 C4.02943725,18 0,13.9705627 0,9 C0,4.02943725 4.02943725,0 9,0 C13.9705627,0 18,4.02943725 18,9 C18,13.9705627 13.9705627,18 9,18 Z M9,16.3636364 C13.066824,16.3636364 16.3636364,13.066824 16.3636364,9 C16.3636364,4.93317593 13.066824,1.63636364 9,1.63636364 C4.93317593,1.63636364 1.63636364,4.93317593 1.63636364,9 C1.63636364,13.066824 4.93317593,16.3636364 9,16.3636364 Z M9.81818182,8.18181818 L13.0909091,8.18181818 L13.0909091,9.81818182 L8.18181818,9.81818182 L8.18181818,4.09090909 L9.81818182,4.09090909 L9.81818182,8.18181818 Z" id="Shape"></path>
        </g>
        <path d="M509.6,33.783788 L506.4,35.6539178 L506.4,45.2237796 L509.6,43.3536498 L509.6,33.783788 Z M511.2,32.848723 L511.2,42.4797178 L514.4,43.7888088 L514.4,34.0966809 L511.261533,32.8127624 L511.2,32.848723 Z M504.8,45.4984873 L504.8,35.7688206 L501.6,34.6779115 L501.6,44.4075782 L504.8,45.4984873 Z M505.686351,47.525531 L500,45.5870024 L500,32.4075782 L505.513649,34.2872314 L511.138467,31 L516,32.9888088 L516,46.2057718 L511.261533,44.2673079 L505.686351,47.525531 Z" id="Shape" fill="#888792" fill-rule="nonzero"></path>
        <polygon id="Path" fill="#96A0AA" points="549.000893 38.2834177 544.894925 34 543 35.8952069 547.284566 40 543.001786 44.1047931 544.896711 46 549.000893 41.7165823 553.105075 46 555 44.1047931 550.71722 40 554.998214 35.8952069 553.103289 34"></polygon>
        <path d="M552.733333,78.6666667 L543.666667,78.6666667 C543.266667,78.6666667 543,78.4 543,78 C543,77.6 543.266667,77.3333333 543.666667,77.3333333 L552.733333,77.3333333 L550.533333,75.1333333 C550.266667,74.8666667 550.266667,74.4666667 550.533333,74.2 C550.8,73.9333333 551.2,73.9333333 551.466667,74.2 L554.683951,77.417284 C554.881481,77.5259259 555,77.7333333 555,78 C555,78.2666667 554.881481,78.4740741 554.683951,78.582716 L551.466667,81.8 C551.333333,81.9333333 551.2,82 551,82 C550.8,82 550.666667,81.9333333 550.533333,81.8 C550.266667,81.5333333 550.266667,81.1333333 550.533333,80.8666667 L552.733333,78.6666667 Z" id="Combined-Shape" fill="#96A0AA"></path>
        <polygon id="Triangle-1-Copy" fill-opacity="0.800000012" fill="#2A3246" transform="translate(589.000000, 40.000000) scale(1, -1) translate(-589.000000, -40.000000) " points="589 38 593 42 585 42"></polygon>
        <g id="logo" transform="translate(30.000000, 197.000000)">
            <g id="Group-54" transform="translate(47.658140, 8.837209)" fill="#2A3246">
                <path d="M202.911943,11.6880047 L200.86379,11.6880047 L200.30716,14.585814 L199.951137,14.9199488 C199.865528,14.9274605 199.762004,14.938507 199.63218,14.9532651 C199.502091,14.9682884 199.364941,14.9796 199.216583,14.9906465 C199.071756,15.0016047 198.930635,15.0091163 198.793573,15.0091163 C198.344528,15.0054047 197.932726,14.9532651 197.561963,14.8530512 C197.186964,14.7528372 196.853004,14.6191302 196.556288,14.4520186 C196.259308,14.2847302 195.995864,14.1025953 195.769753,13.8983674 C195.543288,13.6977628 195.346654,13.4970698 195.187352,13.2926651 C194.905375,12.9249488 194.671409,12.5126047 194.4821,12.0482093 C194.292968,11.5875256 194.152112,11.0895488 194.059267,10.5547209 C193.966422,10.019893 193.918146,9.45873023 193.918146,8.87936279 C193.921941,7.83524651 194.070299,6.90636744 194.359689,6.0891907 C194.652963,5.27183721 195.06097,4.60294884 195.587857,4.08667907 C195.680614,3.98646512 195.817764,3.87096279 195.999835,3.7300093 C196.177759,3.59267907 196.400429,3.45517209 196.663872,3.32137674 C196.931023,3.18386977 197.238947,3.06889767 197.595236,2.97946512 C197.947465,2.88676279 198.348234,2.84222326 198.793573,2.83842326 C199.038483,2.83842326 199.260888,2.8531814 199.457522,2.87925116 C199.650449,2.90532093 199.817517,2.93483721 199.951137,2.9722186 L200.329666,3.32888837 L200.86379,6.07063256 L202.911943,6.07063256 L202.911943,2.03609302 C202.155149,1.74623256 201.386882,1.52326977 200.607583,1.37100465 C199.828814,1.22245116 199.038483,1.14424186 198.236944,1.14424186 C197.446613,1.14804186 196.74189,1.20362791 196.129483,1.31135349 C195.513811,1.4227907 194.97192,1.57134419 194.504341,1.75347907 C194.037026,1.93941395 193.625225,2.1438186 193.272731,2.37049302 C192.597486,2.79008372 192.022322,3.2657907 191.551036,3.79310698 C191.07622,4.31715349 190.697956,4.87425116 190.408477,5.45768372 C190.115291,6.04085116 189.903918,6.6278186 189.774006,7.2222093 C189.640475,7.81668837 189.577372,8.3888093 189.577372,8.94599535 C189.5734,9.54445116 189.647712,10.1721581 189.799776,10.8260233 C189.951929,11.476 190.204341,12.1223535 190.556835,12.7651721 C190.909064,13.4079023 191.384145,14.0171395 191.981548,14.585814 C192.467661,15.038986 192.964806,15.4067023 193.476602,15.6890512 C193.98875,15.9678651 194.504341,16.1832279 195.027698,16.3280698 C195.55079,16.4766233 196.073882,16.577014 196.593532,16.6288884 C197.112653,16.6810279 197.624978,16.7070977 198.125565,16.7032977 C198.518833,16.7070977 198.960465,16.6847395 199.44649,16.6364 C199.932603,16.5918605 200.466727,16.5064047 201.042155,16.3836558 C201.62076,16.2611721 202.244199,16.0828372 202.911943,15.8560744 L202.911943,11.6880047 Z" id="Fill-42"></path>
                <polygon id="Fill-43" points="172.001668 1.43410233 172.001668 2.72698605 173.35966 2.81615349 173.737924 3.15055349 173.737924 14.585814 173.35966 15.0091163 172.001668 15.0982837 172.001668 16.3911674 179.392562 16.3911674 179.392562 15.0982837 178.056634 15.0091163 177.700434 14.585814 177.700434 9.36956279 183.265757 9.36956279 183.265757 14.585814 182.909733 15.0091163 181.57407 15.0982837 181.57407 16.3911674 188.9647 16.3911674 188.9647 15.0982837 187.584555 15.0091163 187.228531 14.585814 187.228531 3.15055349 187.584555 2.81615349 188.9647 2.72698605 188.9647 1.43410233 181.57407 1.43410233 181.57407 2.72698605 182.909733 2.81615349 183.265757 3.15055349 183.265757 7.7200093 177.700434 7.7200093 177.700434 3.15055349 178.056634 2.81615349 179.392562 2.72698605 179.392562 1.43410233"></polygon>
                <path d="M162.349747,4.95590698 L164.15299,9.88229767 L160.59125,9.88229767 L162.349747,4.95590698 Z M161.771054,1.32266512 L156.673045,15.0091163 L155.318053,15.0982837 L155.318053,16.3911674 L160.59125,16.3911674 L160.59125,15.0982837 L159.166536,14.9422186 L158.943867,14.6749814 L160.056861,11.3758744 L164.798669,11.3758744 L165.978473,14.696986 L165.800373,14.9868465 L164.286609,15.0982837 L164.286609,16.3911674 L171.407265,16.3911674 L171.407265,15.0982837 L170.141412,14.9199488 L164.976593,1.32266512 L161.771054,1.32266512 Z" id="Fill-44"></path>
                <polygon id="Fill-45" points="137.805187 1.43410233 137.805187 2.72698605 139.163356 2.81615349 139.541885 3.15055349 139.541885 14.585814 139.163356 15.0091163 137.805187 15.0982837 137.805187 16.3911674 145.196082 16.3911674 145.196082 15.0982837 143.860595 15.0091163 143.50413 14.585814 143.50413 9.36956279 149.069453 9.36956279 149.069453 14.585814 148.713518 15.0091163 147.377589 15.0982837 147.377589 16.3911674 154.768484 16.3911674 154.768484 15.0982837 153.388252 15.0091163 153.032228 14.585814 153.032228 3.15055349 153.388252 2.81615349 154.768484 2.72698605 154.768484 1.43410233 147.377589 1.43410233 147.377589 2.72698605 148.713518 2.81615349 149.069453 3.15055349 149.069453 7.7200093 143.50413 7.7200093 143.50413 3.15055349 143.860595 2.81615349 145.196082 2.72698605 145.196082 1.43410233"></polygon>
                <polygon id="Fill-46" points="118.850221 1.43410233 118.850221 2.72698605 120.20839 2.81615349 120.586919 3.15055349 120.586919 14.585814 120.20839 15.0091163 118.850221 15.0982837 118.850221 16.3911674 126.241116 16.3911674 126.241116 15.0982837 124.905453 15.0091163 124.549164 14.585814 124.549164 13.7832186 130.470776 6.18189302 130.470776 14.585814 130.114576 15.0091163 128.778912 15.0982837 128.778912 16.3911674 136.169807 16.3911674 136.169807 15.0982837 134.789574 15.0091163 134.433286 14.585814 134.433286 3.15055349 134.789574 2.81615349 136.169807 2.72698605 136.169807 1.43410233 128.778912 1.43410233 128.778912 2.72698605 130.114576 2.81615349 130.470776 3.15055349 130.470776 3.77454884 124.549164 11.3758744 124.549164 3.15055349 124.905453 2.81615349 126.241116 2.72698605 126.241116 1.43410233"></polygon>
                <path d="M111.060852,4.68866977 L111.461621,4.68866977 C111.65799,4.68486977 111.873335,4.69962791 112.114538,4.73674419 C112.351946,4.77386047 112.596591,4.8481814 112.845561,4.9672186 C113.094265,5.08245581 113.327614,5.25707907 113.554078,5.491 C113.69114,5.62850698 113.828466,5.8254 113.96235,6.07796744 C114.099411,6.33071163 114.21079,6.65388837 114.303547,7.05138605 C114.392597,7.44897209 114.440696,7.93192558 114.444668,8.50033488 C114.440696,9.10957209 114.385095,9.62230698 114.277511,10.0383628 C114.170016,10.454507 114.0251,10.7886419 113.843469,11.041386 C113.609856,11.3868326 113.353649,11.6469116 113.071672,11.818 C112.79349,11.9923581 112.511601,12.1077721 112.233153,12.166893 C111.951176,12.2228326 111.695234,12.248814 111.461621,12.2451023 L111.060852,12.2451023 L111.060852,4.68866977 Z M107.365228,4.68866977 L107.365228,12.2451023 L106.964723,12.2451023 C106.730757,12.248814 106.474903,12.2228326 106.192926,12.166893 C105.914743,12.1077721 105.632766,11.9923581 105.354319,11.818 C105.072606,11.6469116 104.816488,11.3868326 104.582522,11.041386 C104.400891,10.7886419 104.256328,10.454507 104.148744,10.0383628 C104.041161,9.62230698 103.985383,9.10957209 103.981676,8.50033488 C103.985383,7.93192558 104.033659,7.44897209 104.122709,7.05138605 C104.215289,6.65388837 104.326668,6.33071163 104.463994,6.07796744 C104.597525,5.8254 104.734675,5.62850698 104.872001,5.491 C105.098377,5.25707907 105.335873,5.08245581 105.58449,4.9672186 C105.833195,4.8481814 106.074133,4.77386047 106.315248,4.73674419 C106.552921,4.69962791 106.768089,4.68486977 106.964723,4.68866977 L107.365228,4.68866977 Z M105.31734,16.3911674 L113.086499,16.3911674 L113.086499,15.0982837 L111.617216,15.0091163 L111.194383,14.585814 L111.194383,13.7608605 L111.728507,13.7608605 C112.251599,13.7608605 112.79349,13.7200326 113.346148,13.6308651 C113.902777,13.5454093 114.444668,13.4003907 114.97129,13.2072977 C115.498354,13.0106698 115.984467,12.7503256 116.425834,12.4234372 C117.019443,11.9813116 117.483315,11.4351721 117.813216,10.7886419 C118.143734,10.1421116 118.314332,9.37707442 118.317862,8.50033488 C118.314332,7.93917209 118.251317,7.43792558 118.128995,6.99173488 C118.006408,6.5496093 117.846753,6.15988837 117.646412,5.8254 C117.442541,5.48728837 117.223314,5.20140465 116.985906,4.95590698 C116.745055,4.71473953 116.507383,4.51404651 116.269974,4.3541814 C115.884208,4.08667907 115.479908,3.87502791 115.05681,3.71896279 C114.6338,3.55909767 114.214497,3.44014884 113.802695,3.36220465 C113.387187,3.28434884 112.997625,3.2322093 112.63763,3.20613953 C112.274192,3.18015814 111.955148,3.16911163 111.684026,3.17255814 L111.194383,3.17255814 L111.194383,2.37049302 L111.617216,1.94692558 L113.086499,1.85766977 L113.086499,0.564874419 L105.31734,0.564874419 L105.31734,1.85766977 L106.808863,1.94692558 L107.231873,2.37049302 L107.231873,3.17255814 L106.742053,3.17255814 C106.471108,3.16911163 106.155858,3.18015814 105.792421,3.20613953 C105.42863,3.2322093 105.039157,3.28434884 104.623561,3.36220465 C104.211759,3.44014884 103.792544,3.55909767 103.369446,3.71896279 C102.950142,3.87502791 102.542136,4.08667907 102.156105,4.3541814 C101.918697,4.51404651 101.681288,4.71473953 101.440085,4.95590698 C101.202677,5.20140465 100.983803,5.48728837 100.783374,5.8254 C100.579503,6.15988837 100.419936,6.5496093 100.297349,6.99173488 C100.175026,7.43792558 100.111923,7.93917209 100.108217,8.50033488 C100.111923,9.37707442 100.282522,10.1421116 100.61304,10.7886419 C100.943028,11.4351721 101.406813,11.9813116 102.00051,12.4234372 C102.441789,12.7503256 102.927902,13.0106698 103.454789,13.2072977 C103.981676,13.4003907 104.523302,13.5454093 105.079932,13.6308651 C105.632766,13.7200326 106.174392,13.7608605 106.697484,13.7608605 L107.231873,13.7608605 L107.231873,14.585814 L106.808863,15.0091163 L105.31734,15.0982837 L105.31734,16.3911674 Z" id="Fill-47"></path>
                <path d="M90.5860322,2.81615349 C90.7977579,2.80864186 91.0499048,2.83842326 91.3391191,2.90152093 C91.6325697,2.96470698 91.9367874,3.09470233 92.2594507,3.29530698 C92.578672,3.4922 92.890215,3.79310698 93.1906378,4.19820465 C93.3947735,4.4694186 93.5877007,4.8184 93.7658009,5.24196744 C93.9439012,5.66208837 94.0885524,6.16713488 94.199843,6.75807907 C94.3113984,7.34849302 94.3669113,8.03213953 94.3707063,8.81246512 C94.3707063,9.4550186 94.3261371,10.0865256 94.2333802,10.706986 C94.1405351,11.3275349 93.9957073,11.9107023 93.7955431,12.4530419 C93.5986444,12.9918465 93.3464976,13.4672884 93.034778,13.872386 C92.7788362,14.1882279 92.5116858,14.4331953 92.2335035,14.6118837 C91.9552329,14.7861535 91.6808456,14.9087256 91.4099002,14.9758 C91.1389549,15.0462326 90.886808,15.079814 90.6528419,15.076014 C90.3856915,15.079814 90.1075092,15.038986 89.8255319,14.9573302 C89.5398478,14.8791209 89.2578705,14.7453256 88.9794234,14.5559442 C88.7015058,14.3665628 88.4343555,14.106307 88.1819438,13.7832186 C87.933239,13.4637535 87.7108343,13.0773023 87.5142003,12.6241302 C87.3175664,12.1709581 87.1614419,11.6433767 87.046621,11.041386 C86.9315355,10.4397488 86.8722276,9.75610233 86.8685208,8.99053488 C86.8685208,8.33295814 86.9167967,7.70525116 87.0095536,7.10697209 C87.1023987,6.50506977 87.243255,5.95168372 87.4323872,5.44266047 C87.6217842,4.93363721 87.8553973,4.49177674 88.1373747,4.10894884 C88.4008183,3.77101395 88.6717636,3.50704651 88.9536527,3.31793023 C89.239425,3.1280186 89.5213141,2.99802326 89.7994964,2.92387907 C90.0779435,2.84946977 90.3376803,2.8126186 90.5860322,2.81615349 Z M90.697411,1.12197209 C89.8810448,1.12577209 89.1318412,1.20009302 88.4490942,1.34864651 C87.7663472,1.49348837 87.1542049,1.69409302 86.608784,1.94312558 C86.0634513,2.19560465 85.58484,2.4782186 85.1765686,2.79379535 C84.5903735,3.25076744 84.1155572,3.74503256 83.74806,4.27632558 C83.3845343,4.81115349 83.106352,5.34969302 82.913513,5.8998093 C82.7166143,6.44966047 82.5870548,6.97697674 82.5164501,7.486 C82.4459337,7.99502326 82.4123965,8.45199535 82.4161033,8.85700465 C82.420163,9.59623721 82.4942097,10.2834186 82.6425677,10.9113907 C82.7873955,11.5356512 82.9912664,12.1077721 83.2472083,12.6241302 C83.5031501,13.1404 83.7966007,13.6010837 84.1265892,14.0023814 C84.4568424,14.4073907 84.8058059,14.7601721 85.1765686,15.0540093 C85.8593156,15.6035953 86.6533531,16.0271628 87.5511795,16.3208233 C88.4490942,16.6176651 89.425027,16.7663953 90.4750064,16.7701953 C91.2393017,16.7663953 91.9662649,16.6882744 92.6490119,16.5359209 C93.3317588,16.3836558 93.9661416,16.164493 94.5488065,15.8821442 C95.1347369,15.5997953 95.6618888,15.2656605 96.1292034,14.8754093 C96.7601442,14.3515395 97.2719397,13.7646605 97.6690026,13.118307 C98.0660655,12.4717767 98.3589865,11.7919302 98.5445885,11.0749674 C98.7339855,10.3578279 98.8265658,9.63335349 98.8230356,8.90163256 C98.8230356,8.11750698 98.718982,7.34849302 98.5038143,6.59423721 C98.2884701,5.84395814 97.9621884,5.13804186 97.5168495,4.47295349 C97.071599,3.81184186 96.5077326,3.22116279 95.8174838,2.70462791 C95.2905966,2.31835349 94.7451757,2.01002326 94.1851043,1.77981395 C93.6211497,1.54553953 93.0497815,1.37825116 92.4671166,1.27450233 C91.8810098,1.17031163 91.2910197,1.11826047 90.697411,1.12197209 L90.697411,1.12197209 Z" id="Fill-48"></path>
                <path d="M73.5369506,2.94986047 L74.449604,2.94986047 C74.7983027,2.95366047 75.1025205,3.00173488 75.3584623,3.09470233 C75.6183757,3.1913814 75.8373384,3.31793023 76.0192336,3.46993023 C76.1970691,3.62599535 76.3418969,3.79310698 76.4530109,3.97524186 C76.5718033,4.16082326 76.6721501,4.37627442 76.7499917,4.61797209 C76.8277451,4.85569302 76.8873178,5.10826047 76.928092,5.37576279 C76.9688662,5.64335349 76.9873999,5.91085581 76.9873999,6.18189302 C76.9873999,6.56463256 76.9503324,6.9213907 76.879816,7.25932558 C76.8055047,7.59752558 76.6979208,7.90214419 76.5570645,8.17344651 C76.4125015,8.44068372 76.2378433,8.66011163 76.0301773,8.83446977 C75.8113029,9.01660465 75.566393,9.15411163 75.2954477,9.24327907 C75.0245023,9.33244651 74.7538217,9.39183256 74.4793462,9.42170233 C74.2049588,9.44768372 73.9487522,9.46253023 73.7148743,9.45873023 L73.5369506,9.45873023 L73.5369506,2.94986047 Z M67.7267173,16.3911674 L75.5181171,16.3911674 L75.5181171,15.0982837 L73.8709106,15.0091163 L73.5369506,14.585814 L73.5369506,10.9745767 C73.7373795,10.9968465 73.9525472,11.0116047 74.1789234,11.0229163 C74.401328,11.0338744 74.6277042,11.041386 74.8503736,11.041386 C75.4625159,11.041386 76.0600078,10.9968465 76.6458499,10.9076791 C77.2285148,10.8147116 77.7739357,10.6699581 78.2822892,10.4692651 C78.7868477,10.2685721 79.2321865,10.0085814 79.6141577,9.68169302 C79.7888159,9.53685116 79.9666514,9.35851628 80.1485466,9.13935349 C80.3301771,8.92390233 80.4973336,8.66391163 80.6531934,8.36273953 C80.8052581,8.06192093 80.9313757,7.71276279 81.0276628,7.31517674 C81.1207727,6.9175907 81.1687838,6.46424186 81.1724906,5.95893023 C81.1762856,5.42410233 81.1094759,4.9225907 80.9796516,4.46190698 C80.8460323,4.00122326 80.6306881,3.58516744 80.3342369,3.20993953 C80.037256,2.83842326 79.6401931,2.51153488 79.1468431,2.23643256 C78.9797749,2.13630698 78.7275398,2.02106977 78.386078,1.89849767 C78.0485878,1.77574884 77.596012,1.66811163 77.0356758,1.57885581 C76.4717212,1.48624186 75.7742355,1.43790233 74.9394237,1.43410233 L67.7267173,1.43410233 L67.7267173,2.72698605 L69.2850502,2.81615349 L69.574441,3.15055349 L69.574441,14.585814 L69.1514309,15.0091163 L67.7267173,15.0982837 L67.7267173,16.3911674 Z" id="Fill-49"></path>
                <polygon id="Fill-50" points="52.4273072 1.43410233 52.4273072 5.9143907 54.2973597 5.9143907 54.7424337 3.21718605 55.1208747 2.94986047 57.2804062 2.94986047 57.2804062 14.585814 56.857396 15.0091163 55.3658728 15.0982837 55.3658728 16.3911674 63.1572726 16.3911674 63.1572726 15.0982837 61.6657493 15.0091163 61.2426509 14.585814 61.2426509 2.94986047 63.3576133 2.94986047 63.7583829 3.21718605 64.2257857 5.9143907 66.0957499 5.9143907 66.0957499 1.43410233"></polygon>
                <polygon id="Fill-51" points="33.8335723 1.43410233 33.8335723 2.72698605 35.1912998 2.81615349 35.569829 3.15055349 35.569829 14.585814 35.1912998 15.0091163 33.8335723 15.0982837 33.8335723 16.3911674 41.2242907 16.3911674 41.2242907 15.0982837 39.888539 15.0091163 39.5323385 14.585814 39.5323385 9.36956279 45.0976619 9.36956279 45.0976619 14.585814 44.7414614 15.0091163 43.4057979 15.0982837 43.4057979 16.3911674 50.7966928 16.3911674 50.7966928 15.0982837 49.4164601 15.0091163 49.0601714 14.585814 49.0601714 3.15055349 49.4164601 2.81615349 50.7966928 2.72698605 50.7966928 1.43410233 43.4057979 1.43410233 43.4057979 2.72698605 44.7414614 2.81615349 45.0976619 3.15055349 45.0976619 7.7200093 39.5323385 7.7200093 39.5323385 3.15055349 39.888539 2.81615349 41.2242907 2.72698605 41.2242907 1.43410233"></polygon>
                <polygon id="Fill-52" points="19.1544241 16.3911674 32.0881371 16.3911674 32.0881371 12.0667674 30.1736037 12.0667674 29.8175798 14.5186512 29.5058602 14.8754093 24.8756072 14.8754093 24.8756072 9.52562791 27.2129742 9.52562791 27.5470224 9.83775814 27.7694271 11.442507 29.3500005 11.442507 29.3500005 5.95893023 27.7694271 5.95893023 27.5470224 7.5642093 27.2129742 7.87607442 24.8756072 7.87607442 24.8756072 2.94986047 28.8158763 2.94986047 29.1275958 3.1951814 29.4837963 5.15686512 31.3981531 5.15686512 31.3981531 1.43410233 19.1544241 1.43410233 19.1544241 2.72698605 20.6459473 2.81615349 21.0019713 3.15055349 21.0019713 14.585814 20.6459473 15.0091163 19.1544241 15.0982837"></polygon>
                <polygon id="Fill-53" points="0.271033605 1.43410233 0.271033605 2.72698605 1.62893756 2.81615349 2.00746674 3.15055349 2.00746674 14.585814 1.62893756 15.0091163 0.271033605 15.0982837 0.271033605 16.3911674 14.0283499 16.3911674 14.3403342 16.7479256 14.9189393 20.4035256 17.1450157 20.4035256 17.1450157 14.8754093 15.4978974 14.8754093 15.2306588 14.6078186 15.2306588 3.15055349 15.5869476 2.81615349 16.967092 2.72698605 16.967092 1.43410233 9.57628535 1.43410233 9.57628535 2.72698605 10.9119488 2.81615349 11.2681493 3.15055349 11.2681493 14.8754093 5.96997628 14.8754093 5.96997628 3.15055349 6.32600023 2.81615349 7.66192849 2.72698605 7.66192849 1.43410233"></polygon>
            </g>
            <g id="Group-58">
                <polygon id="Fill-55" fill="#FF0142" points="2.10181221 1.88621395 36.2164793 1.88621395 36.2164793 36.0459163 2.10181221 36.0459163"></polygon>
                <path d="M19.2134672,14.8201767 C16.2679294,17.0499814 8.97755791,20.9643349 5.39684302,20.1742 C4.59177349,19.8961814 4.18923872,19.3991767 4.18923872,18.6834512 C4.18923872,17.7961953 4.73183547,16.8820744 5.81641116,15.9411767 C6.63922012,15.2255395 8.04742988,14.2653767 10.0418348,13.0594512 C10.951664,12.5033256 11.7216959,11.9930651 12.3519307,11.5293767 C12.9816359,11.0656884 13.4889303,10.6417674 13.8742552,10.2572605 C15.1338422,9.01174419 15.5556167,8.15780465 15.5556167,7.05810233 C15.5556167,2.38719535 4.58100628,6.14574884 2.10181221,7.86644186 L2.10181221,5.72191628 C2.41026628,5.57115349 2.71351326,5.42905116 3.03123419,5.2978186 C6.37003988,3.91576744 11.9608692,2.93660465 14.872958,4.74770233 C16.8898681,5.95716279 16.3694236,9.22445581 15.2339243,10.8071116 C13.0030821,13.9163953 8.5812893,15.5917535 6.53084198,17.5845442 C5.29949686,18.7814558 5.72330128,19.7861581 8.98011733,19.0043302 C15.1991515,17.3996698 21.3479341,13.1558651 27.5214283,4.73294419 C27.6265409,4.67956744 27.9412612,4.58686512 28.4661185,4.45466047 C28.7635406,4.38820465 29.0257486,4.33191163 29.2531838,4.28551628 C29.4807956,4.23947442 29.6824601,4.20288837 29.8573831,4.17628837 C30.1898428,4.13669767 30.3734149,4.15004186 30.4084524,4.21614419 C30.4607881,4.32210233 29.2882214,5.66032093 26.8915465,8.2301814 C25.5091074,9.70113488 24.4640703,10.8106465 23.7553762,11.5591581 C23.0465937,12.3076698 22.6748602,12.701986 22.6400874,12.7417535 C22.4254493,12.9935256 22.2097521,13.2452977 21.9921133,13.4958326 C22.3631407,13.3277488 22.7419347,13.1708884 23.1292012,13.0256047 C24.0695669,12.6733535 24.9672167,12.4181349 25.8220626,12.2597721 C26.4104641,12.1446233 27.0896808,12.1017628 27.8584772,12.130307 C29.2474472,12.1826233 30.2576233,12.4496837 31.2548257,13.4700279 C31.8892967,14.1177953 32.1564471,14.9166791 32.0308591,16.1358605 C32.7453781,14.8302512 33.2114571,14.0443581 33.5989884,12.518614 C32.1939558,12.4324512 31.0681647,12.1771442 30.22338,11.7530465 C29.3782423,11.3289488 28.7938123,10.8577488 28.4711491,10.3399767 C28.1483976,9.8223814 28.0768221,9.32237209 28.2574817,8.84065581 C28.4378766,8.35893953 28.8419117,8.01048837 29.4687928,7.79459535 C29.7532413,7.69367442 30.0619601,7.65081395 30.3942433,7.66504186 C30.7267029,7.67962326 31.0494544,7.72946512 31.3628508,7.81615814 C31.6763355,7.90232093 31.9658145,8.01048837 32.2317293,8.13951163 C32.4974676,8.26933023 32.7160772,8.40577674 32.8869405,8.5493814 C33.3805552,8.9521814 33.7462873,9.4664186 33.9839602,10.0917395 C34.2216331,10.7176791 34.3206562,11.3970837 34.2827062,12.130307 C34.7527566,12.1185535 35.2236014,12.0748977 35.6894156,12.0123302 C35.8638091,11.989 36.0436744,11.9639907 36.2164793,11.9331488 L36.2164793,12.4581674 C36.0413798,12.4772558 35.8615144,12.4905116 35.6853558,12.5025302 C35.2000371,12.5361116 34.712512,12.5514 34.2258694,12.5406186 C34.0382376,13.7788884 33.7262533,14.5143209 33.2004251,15.5607349 C33.878671,14.9842837 34.6181665,14.4865721 35.4146752,14.0902233 C35.672647,13.9622605 35.9478286,13.8357116 36.2164793,13.7338186 L36.2164793,14.7435581 C35.586068,14.8336977 34.9323572,15.0724791 34.3807584,15.3906186 C32.7350522,16.3397349 31.6653917,18.1083256 30.67119,19.6692419 C29.95014,20.800493 29.2156751,22.3263256 29.5188338,23.5124558 C30.2818936,26.4991674 34.2934734,26.1612326 36.2164793,24.0725581 L36.2164793,25.4563767 C33.8778767,26.6324326 28.4005444,27.6968744 28.7563036,22.3341023 C28.6229491,22.4780605 28.4996557,22.6216651 28.3860705,22.7654465 C28.2719557,22.9097581 28.1483976,23.0602558 28.0153078,23.2186186 C24.4966367,27.5658186 17.6408369,33.034814 11.8636113,33.8264512 C10.2129628,34.0525953 8.64836372,33.8872512 7.56131686,33.0233256 C4.68258872,30.733693 7.34217767,25.4588512 10.2797724,25.0049721 C10.6597137,24.9621116 10.9964979,25.0017023 11.2914488,25.1236558 C11.585429,25.2458744 11.7609698,25.4079488 11.818336,25.6091721 C11.9326273,25.9112279 11.8885877,26.2070977 11.6899238,26.4939535 C11.491613,26.7802791 11.2801521,27.0192372 10.9574888,27.1054 C10.2570024,27.3578791 9.67954465,26.912307 9.50470988,26.3078419 C9.37011977,25.8436233 8.84093791,26.277707 8.36541558,26.9045302 C7.13327616,28.5277488 7.1012393,30.6908326 8.967585,31.8586698 C10.3427871,32.719414 12.5480351,32.6646233 15.2722273,31.7452 C21.1728345,29.7534698 28.1583705,22.2804605 27.9735628,22.2263767 C26.6196303,23.1794698 24.5228487,24.5735395 22.0188548,24.7238605 C20.5743719,24.8105535 19.0262766,24.5507395 17.8785098,23.8087674 C17.3041409,23.4380465 16.8297659,22.9462558 16.5177816,22.3170465 C16.1558445,21.5865628 16.0284914,20.6193302 16.1550502,19.8152326 C16.3692471,18.4891209 17.4261987,16.6200512 19.2134672,14.8201767 Z M29.6197102,19.5507349 C30.344467,18.4958372 31.5833138,16.7563209 31.4624916,15.5499535 C31.4056549,14.9818093 31.2535901,14.5175907 31.0071799,14.1579163 C30.7597106,13.7989488 30.4417249,13.5291488 30.0519872,13.3494884 C29.6632203,13.1696512 29.2642158,13.0438977 28.8556797,12.971786 C28.4475848,12.9003814 28.0583766,12.8707767 27.687614,12.8855349 C27.3172926,12.9003814 27.0371686,12.921414 26.8475069,12.9499581 C25.5940978,13.1804326 24.4683066,13.5469116 23.4711924,14.0506326 C22.4742548,14.5539116 21.6101421,15.1290372 20.8791192,15.7760977 C20.1475667,16.4234233 19.5539581,17.1103395 19.0981169,17.836493 C17.263102,20.760107 18.1877581,22.9600419 20.5326269,23.4831163 C23.721839,24.1945116 27.7211512,21.9976698 29.6197102,19.5507349 Z M31.4344263,8.7004093 C31.0354217,8.65754884 30.7077279,8.70792093 30.4512565,8.85143721 C30.1948734,8.99548372 30.0192443,9.18963721 29.9243693,9.43416279 C29.829053,9.67833488 29.8193449,9.94813488 29.8958627,10.2430326 C29.9716744,10.5375767 30.1615127,10.8219581 30.4652892,11.0949395 C30.769507,11.3682744 31.1822794,11.6020186 31.7046656,11.7961721 C32.2272283,11.9905023 32.8776736,12.1017628 33.6562664,12.130307 C33.7132797,11.6992279 33.7378148,11.2863535 33.6702108,10.900786 C33.4403044,9.58439535 32.6307338,8.89032093 31.4344263,8.7004093 Z M3.23281047,14.4479535 C3.62237163,14.3705395 4.02834837,14.2718279 4.45171151,14.1528791 C4.97630407,14.0068 5.44935523,13.8444605 5.86918814,13.6654186 C6.28893279,13.4868186 6.66525558,13.3046837 6.99745047,13.1192791 C8.29737035,12.3597209 9.14021337,11.5135581 9.73205686,10.5584326 C9.97652547,10.163586 10.1794256,9.75026977 10.3532895,9.31618605 C10.4996177,8.64005116 11.6504735,8.55088372 11.1908372,9.65429767 C11.1015223,9.8679814 10.9557237,10.131507 10.7492934,10.4589256 C10.326548,11.1302884 9.79515977,11.7430605 9.18875407,12.2247767 C8.67263407,12.6353535 8.06472802,13.0466372 7.36521244,13.457214 C6.61265512,13.8807814 5.70282593,14.2520326 4.63581314,14.5701721 C4.18650279,14.6929209 3.75096035,14.7939302 3.33112744,14.8728465 C2.92312081,14.9492 2.51511419,15.007614 2.10181221,15.0451721 L2.10181221,14.6208093 C2.47531081,14.5866977 2.86460721,14.5213907 3.23281047,14.4479535 L3.23281047,14.4479535 Z" id="Fill-56" fill="#FEFEFE"></path>
                <path d="M0.677539884,0.177981395 L37.6407516,0.177981395 L37.9221994,0.177981395 L37.9221994,0.4598 L37.9221994,37.4719767 L37.9221994,37.7537953 L37.6407516,37.7537953 L0.677539884,37.7537953 L0.396092093,37.7537953 L0.396092093,37.4719767 L0.396092093,0.4598 L0.396092093,0.177981395 L0.677539884,0.177981395 Z M37.3593038,0.741618605 L0.958987674,0.741618605 L0.958987674,37.1901581 L37.3593038,37.1901581 L37.3593038,0.741618605 Z" id="Fill-57" fill="#2A3246"></path>
            </g>
        </g>
        <g id="logo" transform="translate(30.000000, 261.000000)">
            <g id="Group-54" transform="translate(30.139535, 5.581395)" fill="#2A3246">
                <path d="M128.323758,7.38189767 L127.028484,7.38189767 L126.676465,9.21209302 L126.451312,9.42312558 C126.397172,9.42786977 126.331702,9.43484651 126.2496,9.44416744 C126.16733,9.45365581 126.080595,9.4608 125.986772,9.46777674 C125.895181,9.47469767 125.805935,9.47944186 125.719256,9.47944186 C125.435274,9.47709767 125.174847,9.44416744 124.940372,9.38087442 C124.703219,9.3175814 124.492019,9.23313488 124.304372,9.1275907 C124.116558,9.02193488 123.949953,8.90690233 123.806958,8.77791628 C123.66374,8.6512186 123.539386,8.52446512 123.438642,8.39536744 C123.260316,8.16312558 123.112353,7.90269767 122.992633,7.60939535 C122.873023,7.31843721 122.783944,7.00392558 122.725228,6.66613953 C122.666512,6.32835349 122.635981,5.97393488 122.635981,5.6080186 C122.638381,4.94857674 122.732205,4.36191628 122.915219,3.84580465 C123.100688,3.3295814 123.358716,2.90712558 123.691926,2.58106047 C123.750586,2.51776744 123.837321,2.4448186 123.952465,2.35579535 C124.064986,2.26906047 124.205805,2.18221395 124.372409,2.09771163 C124.541358,2.01086512 124.736093,1.93825116 124.961414,1.88176744 C125.184167,1.8232186 125.437619,1.79508837 125.719256,1.79268837 C125.87414,1.79268837 126.014791,1.8020093 126.139144,1.81847442 C126.261153,1.83493953 126.366809,1.8535814 126.451312,1.8771907 L126.690698,2.10245581 L127.028484,3.83408372 L128.323758,3.83408372 L128.323758,1.28595349 C127.845153,1.10288372 127.359293,0.962065116 126.866456,0.865897674 C126.373953,0.772074419 125.87414,0.72267907 125.367237,0.72267907 C124.867423,0.72507907 124.421749,0.760186047 124.034456,0.828223256 C123.645098,0.898604651 123.3024,0.992427907 123.006698,1.10746047 C122.711163,1.22489302 122.450735,1.3539907 122.227814,1.49715349 C121.800781,1.76215814 121.437042,2.06260465 121.138995,2.39564651 C120.838716,2.72662326 120.599498,3.07847442 120.416428,3.44695814 C120.231014,3.81527442 120.09734,4.1859907 120.015181,4.56139535 C119.930735,4.93685581 119.890828,5.29819535 119.890828,5.65010233 C119.888316,6.02807442 119.935312,6.42452093 120.031479,6.83748837 C120.127702,7.248 120.28733,7.65622326 120.510251,8.06221395 C120.733005,8.46814884 121.033451,8.85293023 121.411256,9.21209302 C121.718679,9.49830698 122.033079,9.73054884 122.356744,9.90887442 C122.680633,10.0849674 123.006698,10.220986 123.337674,10.3124651 C123.668484,10.4062884 123.999293,10.469693 124.327926,10.5024558 C124.656223,10.535386 124.980223,10.5518512 125.2968,10.5494512 C125.545507,10.5518512 125.8248,10.5377302 126.132167,10.5072 C126.439591,10.4790698 126.777377,10.4250977 127.141284,10.3475721 C127.5072,10.270214 127.90147,10.1575814 128.323758,10.0143628 L128.323758,7.38189767 Z" id="Fill-42"></path>
                <polygon id="Fill-43" points="108.775758 0.905748837 108.775758 1.72230698 109.634567 1.77862326 109.873786 1.98982326 109.873786 9.21209302 109.634567 9.47944186 108.775758 9.53575814 108.775758 10.3523163 113.449842 10.3523163 113.449842 9.53575814 112.604986 9.47944186 112.379721 9.21209302 112.379721 5.9176186 115.899293 5.9176186 115.899293 9.21209302 115.67414 9.47944186 114.829451 9.53575814 114.829451 10.3523163 119.503367 10.3523163 119.503367 9.53575814 118.630549 9.47944186 118.405395 9.21209302 118.405395 1.98982326 118.630549 1.77862326 119.503367 1.72230698 119.503367 0.905748837 114.829451 0.905748837 114.829451 1.72230698 115.67414 1.77862326 115.899293 1.98982326 115.899293 4.87579535 112.379721 4.87579535 112.379721 1.98982326 112.604986 1.77862326 113.449842 1.72230698 113.449842 0.905748837"></polygon>
                <path d="M102.671777,3.13004651 L103.812167,6.24145116 L101.559684,6.24145116 L102.671777,3.13004651 Z M102.305805,0.835367442 L99.0817674,9.47944186 L98.2248558,9.53575814 L98.2248558,10.3523163 L101.559684,10.3523163 L101.559684,9.53575814 L100.658679,9.4371907 L100.51786,9.2684093 L101.22173,7.18476279 L104.220502,7.18476279 L104.966623,9.28230698 L104.853991,9.46537674 L103.89667,9.53575814 L103.89667,10.3523163 L108.399851,10.3523163 L108.399851,9.53575814 L107.599312,9.42312558 L104.333023,0.835367442 L102.305805,0.835367442 Z" id="Fill-44"></path>
                <polygon id="Fill-45" points="87.1495256 0.905748837 87.1495256 1.72230698 88.0084465 1.77862326 88.2478326 1.98982326 88.2478326 9.21209302 88.0084465 9.47944186 87.1495256 9.53575814 87.1495256 10.3523163 91.8236093 10.3523163 91.8236093 9.53575814 90.9790326 9.47944186 90.7536 9.21209302 90.7536 5.9176186 94.2731721 5.9176186 94.2731721 9.21209302 94.0480744 9.47944186 93.2032186 9.53575814 93.2032186 10.3523163 97.8773023 10.3523163 97.8773023 9.53575814 97.0044279 9.47944186 96.7792744 9.21209302 96.7792744 1.98982326 97.0044279 1.77862326 97.8773023 1.72230698 97.8773023 0.905748837 93.2032186 0.905748837 93.2032186 1.72230698 94.0480744 1.77862326 94.2731721 1.98982326 94.2731721 4.87579535 90.7536 4.87579535 90.7536 1.98982326 90.9790326 1.77862326 91.8236093 1.72230698 91.8236093 0.905748837"></polygon>
                <polygon id="Fill-46" points="75.1621953 0.905748837 75.1621953 1.72230698 76.0211163 1.77862326 76.2605023 1.98982326 76.2605023 9.21209302 76.0211163 9.47944186 75.1621953 9.53575814 75.1621953 10.3523163 79.8362791 10.3523163 79.8362791 9.53575814 78.9915907 9.47944186 78.7662698 9.21209302 78.7662698 8.7051907 82.5111628 3.90435349 82.5111628 9.21209302 82.2858977 9.47944186 81.4412093 9.53575814 81.4412093 10.3523163 86.115293 10.3523163 86.115293 9.53575814 85.2424186 9.47944186 85.0170977 9.21209302 85.0170977 1.98982326 85.2424186 1.77862326 86.115293 1.72230698 86.115293 0.905748837 81.4412093 0.905748837 81.4412093 1.72230698 82.2858977 1.77862326 82.5111628 1.98982326 82.5111628 2.38392558 78.7662698 7.18476279 78.7662698 1.98982326 78.9915907 1.77862326 79.8362791 1.72230698 79.8362791 0.905748837"></polygon>
                <path d="M70.2361116,2.96126512 L70.4895628,2.96126512 C70.6137488,2.95886512 70.7499349,2.96818605 70.9024744,2.99162791 C71.052614,3.01506977 71.2073302,3.0620093 71.3647814,3.1371907 C71.5220651,3.20997209 71.6696372,3.32026047 71.8128558,3.468 C71.8995349,3.55484651 71.9863814,3.6792 72.0710512,3.83871628 C72.1577302,3.99834419 72.2281674,4.20245581 72.2868279,4.45350698 C72.3431442,4.70461395 72.3735628,5.00963721 72.3760744,5.36863256 C72.3735628,5.75341395 72.3384,6.07724651 72.2703628,6.3400186 C72.2023814,6.60284651 72.1107349,6.81387907 71.9958698,6.97350698 C71.8481302,7.19168372 71.6861023,7.35594419 71.5077767,7.464 C71.3318512,7.57412093 71.1535814,7.64701395 70.9774884,7.68435349 C70.7991628,7.71968372 70.6373023,7.73609302 70.4895628,7.73374884 L70.2361116,7.73374884 L70.2361116,2.96126512 Z M67.8989581,2.96126512 L67.8989581,7.73374884 L67.6456744,7.73374884 C67.4977116,7.73609302 67.335907,7.71968372 67.1575814,7.68435349 C66.9816558,7.64701395 66.8033302,7.57412093 66.6272372,7.464 C66.4490791,7.35594419 66.287107,7.19168372 66.1391442,6.97350698 C66.0242791,6.81387907 65.9328558,6.60284651 65.8648186,6.3400186 C65.7967814,6.07724651 65.761507,5.75341395 65.7591628,5.36863256 C65.761507,5.00963721 65.7920372,4.70461395 65.8483535,4.45350698 C65.9069023,4.20245581 65.9773395,3.99834419 66.064186,3.83871628 C66.1486326,3.6792 66.2353674,3.55484651 66.322214,3.468 C66.4653767,3.32026047 66.6155721,3.20997209 66.7728,3.1371907 C66.9300837,3.0620093 67.0824558,3.01506977 67.2349395,2.99162791 C67.3852465,2.96818605 67.5213209,2.95886512 67.6456744,2.96126512 L67.8989581,2.96126512 Z M66.6038512,10.3523163 L71.5171535,10.3523163 L71.5171535,9.53575814 L70.5879628,9.47944186 L70.3205581,9.21209302 L70.3205581,8.69106977 L70.6583442,8.69106977 C70.9891535,8.69106977 71.3318512,8.66528372 71.6813581,8.60896744 C72.0333767,8.55499535 72.3760744,8.46340465 72.7091163,8.34145116 C73.0424372,8.21726512 73.3498605,8.05283721 73.628986,7.8463814 C74.0043907,7.56714419 74.2977488,7.22221395 74.5063814,6.81387907 C74.7154047,6.40554419 74.823293,5.92236279 74.8255256,5.36863256 C74.823293,5.01421395 74.7834419,4.69763721 74.7060837,4.41583256 C74.6285581,4.13659535 74.5275907,3.89045581 74.400893,3.6792 C74.2719628,3.46565581 74.1333209,3.28509767 73.9831814,3.13004651 C73.8308651,2.97773023 73.6805581,2.85097674 73.5304186,2.7500093 C73.2864558,2.58106047 73.0307721,2.44738605 72.7632,2.3488186 C72.4956837,2.24785116 72.2305116,2.17272558 71.9700837,2.12349767 C71.7073116,2.07432558 71.4609488,2.04139535 71.2332837,2.02493023 C71.0034419,2.00852093 70.8016744,2.00154419 70.630214,2.00372093 L70.3205581,2.00372093 L70.3205581,1.49715349 L70.5879628,1.22963721 L71.5171535,1.17326512 L71.5171535,0.356762791 L66.6038512,0.356762791 L66.6038512,1.17326512 L67.547107,1.22963721 L67.8146233,1.49715349 L67.8146233,2.00372093 L67.5048558,2.00372093 C67.333507,2.00154419 67.1341395,2.00852093 66.9042977,2.02493023 C66.6742326,2.04139535 66.4279256,2.07432558 66.1650977,2.12349767 C65.9046698,2.17272558 65.6395535,2.24785116 65.3719814,2.3488186 C65.1068093,2.44738605 64.8487814,2.58106047 64.6046512,2.7500093 C64.4545116,2.85097674 64.3043721,2.97773023 64.1518326,3.13004651 C64.001693,3.28509767 63.8632744,3.46565581 63.7365209,3.6792 C63.6075907,3.89045581 63.5066791,4.13659535 63.4291535,4.41583256 C63.3517953,4.69763721 63.3118884,5.01421395 63.3095442,5.36863256 C63.3118884,5.92236279 63.4197767,6.40554419 63.6288,6.81387907 C63.8374884,7.22221395 64.1307907,7.56714419 64.5062512,7.8463814 C64.7853209,8.05283721 65.0927442,8.21726512 65.4259535,8.34145116 C65.7591628,8.46340465 66.101693,8.55499535 66.4537116,8.60896744 C66.8033302,8.66528372 67.1458605,8.69106977 67.4766698,8.69106977 L67.8146233,8.69106977 L67.8146233,9.21209302 L67.547107,9.47944186 L66.6038512,9.53575814 L66.6038512,10.3523163 Z" id="Fill-47"></path>
                <path d="M57.2876093,1.77862326 C57.421507,1.77387907 57.5809674,1.79268837 57.7638698,1.83253953 C57.9494512,1.87244651 58.1418419,1.95454884 58.3458977,2.08124651 C58.5477767,2.2056 58.7448,2.39564651 58.9347907,2.65149767 C59.0638884,2.8227907 59.1858977,3.0432 59.2985302,3.31071628 C59.4111628,3.57605581 59.5026419,3.89503256 59.5730233,4.26826047 C59.6435721,4.64115349 59.6786791,5.07293023 59.6810791,5.56576744 C59.6810791,5.9715907 59.652893,6.37043721 59.5942326,6.76230698 C59.5355163,7.15423256 59.4439256,7.52254884 59.3173395,7.86507907 C59.1928186,8.20537674 59.0333581,8.50565581 58.8362233,8.76150698 C58.6743628,8.96098605 58.505414,9.11570233 58.3294884,9.22855814 C58.153507,9.33862326 57.9799814,9.41603721 57.8086326,9.4584 C57.6372837,9.50288372 57.4778233,9.52409302 57.3298605,9.52169302 C57.1609116,9.52409302 56.984986,9.49830698 56.8066605,9.44673488 C56.6259907,9.39733953 56.4476651,9.31283721 56.2715721,9.19322791 C56.095814,9.0736186 55.9268651,8.90924651 55.7672372,8.7051907 C55.6099535,8.50342326 55.4693023,8.25934884 55.3449488,7.97313488 C55.2205953,7.68692093 55.1218605,7.35371163 55.0492465,6.97350698 C54.9764651,6.59352558 54.9389581,6.16174884 54.936614,5.67823256 C54.936614,5.26292093 54.9671442,4.86647442 55.0258047,4.48861395 C55.0845209,4.10846512 55.1736,3.75895814 55.2932093,3.43746977 C55.412986,3.1159814 55.5607256,2.83691163 55.7390512,2.59512558 C55.9056558,2.38169302 56.0770047,2.21497674 56.2552744,2.09553488 C56.436,1.9755907 56.6142698,1.89348837 56.7901953,1.84666047 C56.9662884,1.79966512 57.1305488,1.7763907 57.2876093,1.77862326 Z M57.3580465,0.708613953 C56.8417674,0.711013953 56.3679628,0.757953488 55.936186,0.851776744 C55.5044093,0.943255814 55.1172837,1.06995349 54.7723535,1.22723721 C54.4274791,1.38669767 54.1248,1.5651907 53.8666047,1.76450233 C53.4958884,2.05311628 53.1956093,2.36528372 52.9632,2.70083721 C52.7333023,3.03862326 52.5573767,3.37875349 52.4354233,3.72619535 C52.3109023,4.07346977 52.2289674,4.40651163 52.1843163,4.728 C52.1397209,5.04948837 52.1185116,5.33810233 52.1208558,5.59389767 C52.1234233,6.0607814 52.1702512,6.4947907 52.2640744,6.89140465 C52.3556651,7.28567442 52.4845953,7.64701395 52.6464558,7.97313488 C52.8083163,8.2992 52.9938977,8.59015814 53.202586,8.8436093 C53.4114419,9.09940465 53.6321302,9.32221395 53.8666047,9.50779535 C54.2983814,9.85490233 54.8005395,10.1224186 55.3683349,10.3078884 C55.936186,10.4953674 56.5533767,10.5893023 57.2173953,10.5917023 C57.7007442,10.5893023 58.1604837,10.5399628 58.5922605,10.4437395 C59.0240372,10.3475721 59.4252279,10.2091535 59.7937116,10.0308279 C60.1642605,9.85250233 60.4976372,9.64146977 60.7931721,9.39499535 C61.192186,9.06413023 61.5158512,8.69346977 61.7669581,8.28524651 C62.0180651,7.87691163 62.2033116,7.44753488 62.3206884,6.99471628 C62.4404651,6.54178605 62.499014,6.08422326 62.4967814,5.62208372 C62.4967814,5.12684651 62.4309767,4.64115349 62.2949023,4.1647814 C62.1587163,3.69092093 61.9523721,3.24507907 61.6707349,2.82502326 C61.3891535,2.40747907 61.0325581,2.0344186 60.5960372,1.70818605 C60.2628279,1.46422326 59.9178977,1.26948837 59.5637023,1.12409302 C59.2070512,0.976130233 58.8457116,0.870474419 58.4772279,0.804948837 C58.1065674,0.739144186 57.7334512,0.706269767 57.3580465,0.708613953 L57.3580465,0.708613953 Z" id="Fill-48"></path>
                <path d="M46.5055814,1.86306977 L47.0827535,1.86306977 C47.3032744,1.86546977 47.4956651,1.89583256 47.6575256,1.95454884 C47.8218977,2.0156093 47.9603721,2.09553488 48.0754047,2.19153488 C48.1878698,2.29010233 48.2794605,2.39564651 48.3497302,2.51067907 C48.4248558,2.62788837 48.4883163,2.76396279 48.5375442,2.91661395 C48.5867163,3.06675349 48.6243907,3.22626977 48.6501767,3.3952186 C48.6759628,3.56422326 48.6876837,3.73317209 48.6876837,3.90435349 C48.6876837,4.14608372 48.6642419,4.37140465 48.6196465,4.58483721 C48.5726512,4.79843721 48.504614,4.99082791 48.4155349,5.16217674 C48.3241116,5.33095814 48.2136558,5.46954419 48.0823256,5.57966512 C47.943907,5.69469767 47.7890233,5.78154419 47.6176744,5.83786047 C47.4463256,5.89417674 47.2751442,5.93168372 47.1015628,5.95054884 C46.9280372,5.96695814 46.7660093,5.97633488 46.6181023,5.97393488 L46.5055814,5.97393488 L46.5055814,1.86306977 Z M42.8311256,10.3523163 L47.758493,10.3523163 L47.758493,9.53575814 L46.7167814,9.47944186 L46.5055814,9.21209302 L46.5055814,6.93131163 C46.6323349,6.94537674 46.7684093,6.95469767 46.9115721,6.96184186 C47.0522233,6.96876279 47.195386,6.97350698 47.3362047,6.97350698 C47.7233302,6.97350698 48.1011907,6.94537674 48.4716837,6.88906047 C48.8401674,6.83034419 49.1850977,6.73892093 49.506586,6.61216744 C49.8256744,6.48541395 50.1073116,6.3212093 50.3488744,6.11475349 C50.4593302,6.02327442 50.5717953,5.91064186 50.6868279,5.77222326 C50.801693,5.63614884 50.9074047,5.47194419 51.0059721,5.28173023 C51.1021395,5.09173953 51.1818977,4.8712186 51.2427907,4.62011163 C51.3016744,4.36900465 51.3320372,4.08267907 51.3343814,3.76353488 C51.3367814,3.42574884 51.2945302,3.10900465 51.2124279,2.81804651 C51.1279256,2.52708837 50.9917395,2.26431628 50.8042605,2.02733023 C50.6164465,1.79268837 50.3653395,1.58623256 50.0533395,1.41248372 C49.9476837,1.34924651 49.7881674,1.27646512 49.5722233,1.19905116 C49.3587907,1.12152558 49.0725767,1.05354419 48.718214,0.997172093 C48.3615628,0.93867907 47.9204651,0.908148837 47.3925209,0.905748837 L42.8311256,0.905748837 L42.8311256,1.72230698 L43.8166326,1.77862326 L43.9996465,1.98982326 L43.9996465,9.21209302 L43.7321302,9.47944186 L42.8311256,9.53575814 L42.8311256,10.3523163 Z" id="Fill-49"></path>
                <polygon id="Fill-50" points="33.1556093 0.905748837 33.1556093 3.73540465 34.3382512 3.73540465 34.6197209 2.03190698 34.8590512 1.86306977 36.2247628 1.86306977 36.2247628 9.21209302 35.9572465 9.47944186 35.0139907 9.53575814 35.0139907 10.3523163 39.9413581 10.3523163 39.9413581 9.53575814 38.9981023 9.47944186 38.7305302 9.21209302 38.7305302 1.86306977 40.0680558 1.86306977 40.321507 2.03190698 40.6170977 3.73540465 41.7996837 3.73540465 41.7996837 0.905748837"></polygon>
                <polygon id="Fill-51" points="21.3967256 0.905748837 21.3967256 1.72230698 22.2553674 1.77862326 22.4947535 1.98982326 22.4947535 9.21209302 22.2553674 9.47944186 21.3967256 9.53575814 21.3967256 10.3523163 26.0706977 10.3523163 26.0706977 9.53575814 25.2259535 9.47944186 25.0006884 9.21209302 25.0006884 5.9176186 28.5202605 5.9176186 28.5202605 9.21209302 28.2949953 9.47944186 27.450307 9.53575814 27.450307 10.3523163 32.1243907 10.3523163 32.1243907 9.53575814 31.2515163 9.47944186 31.0261953 9.21209302 31.0261953 1.98982326 31.2515163 1.77862326 32.1243907 1.72230698 32.1243907 0.905748837 27.450307 0.905748837 27.450307 1.72230698 28.2949953 1.77862326 28.5202605 1.98982326 28.5202605 4.87579535 25.0006884 4.87579535 25.0006884 1.98982326 25.2259535 1.77862326 26.0706977 1.72230698 26.0706977 0.905748837"></polygon>
                <polygon id="Fill-52" points="12.1134698 10.3523163 20.292893 10.3523163 20.292893 7.62111628 19.0821209 7.62111628 18.8569674 9.16967442 18.6598326 9.39499535 15.7316093 9.39499535 15.7316093 6.01618605 17.209786 6.01618605 17.4210419 6.21332093 17.561693 7.22684651 18.5612651 7.22684651 18.5612651 3.76353488 17.561693 3.76353488 17.4210419 4.77739535 17.209786 4.97436279 15.7316093 4.97436279 15.7316093 1.86306977 18.2234791 1.86306977 18.420614 2.0180093 18.6458791 3.25696744 19.8565395 3.25696744 19.8565395 0.905748837 12.1134698 0.905748837 12.1134698 1.72230698 13.0567256 1.77862326 13.2818791 1.98982326 13.2818791 9.21209302 13.0567256 9.47944186 12.1134698 9.53575814"></polygon>
                <polygon id="Fill-53" points="0.171404651 0.905748837 0.171404651 1.72230698 1.03015814 1.77862326 1.26954419 1.98982326 1.26954419 9.21209302 1.03015814 9.47944186 0.171404651 9.53575814 0.171404651 10.3523163 8.87168372 10.3523163 9.06898605 10.5776372 9.43490233 12.8864372 10.8426977 12.8864372 10.8426977 9.39499535 9.80104186 9.39499535 9.63203721 9.2259907 9.63203721 1.98982326 9.85735814 1.77862326 10.7301767 1.72230698 10.7301767 0.905748837 6.05614884 0.905748837 6.05614884 1.72230698 6.90083721 1.77862326 7.12610233 1.98982326 7.12610233 9.39499535 3.77547907 9.39499535 3.77547907 1.98982326 4.00063256 1.77862326 4.84548837 1.72230698 4.84548837 0.905748837"></polygon>
            </g>
            <g id="Group-58">
                <polygon id="Fill-55" fill="#FF0142" points="1.3292093 1.19129302 22.9037023 1.19129302 22.9037023 22.7658419 1.3292093 22.7658419"></polygon>
                <path d="M12.1508093,9.36011163 C10.2880186,10.7684093 5.67750698,13.2406326 3.41302326,12.7416 C2.90388837,12.5660093 2.64932093,12.2521116 2.64932093,11.8000744 C2.64932093,11.2397023 2.99246512,10.6623628 3.67836279,10.0681116 C4.19871628,9.61613023 5.08928372,9.00971163 6.35056744,8.24807442 C6.92595349,7.89683721 7.41293023,7.57456744 7.81149767,7.28171163 C8.20973023,6.98885581 8.53054884,6.72111628 8.77423256,6.47826977 C9.5708093,5.69162791 9.83754419,5.15229767 9.83754419,4.45774884 C9.83754419,1.50770233 2.89707907,3.88152558 1.3292093,4.96827907 L1.3292093,3.61384186 C1.52427907,3.51862326 1.71605581,3.42887442 1.91698605,3.3459907 C4.02848372,2.47311628 7.56418605,1.85469767 9.40582326,2.99854884 C10.6813395,3.7624186 10.3522047,5.82597209 9.63410233,6.82554419 C8.22329302,8.78930233 5.42690233,9.84742326 4.13017674,11.1060279 C3.35146047,11.8619721 3.61947907,12.4965209 5.67912558,12.0027349 C9.61211163,10.9892651 13.5006698,8.30896744 17.4048558,2.98922791 C17.4713302,2.95551628 17.6703628,2.89696744 18.0022884,2.81346977 C18.1903814,2.77149767 18.3562047,2.73594419 18.5000372,2.70664186 C18.6439814,2.67756279 18.7715163,2.65445581 18.8821395,2.63765581 C19.0923907,2.61265116 19.2084837,2.62107907 19.2306419,2.66282791 C19.2637395,2.72974884 18.5221953,3.57493953 17.0065116,5.1980093 C16.1322419,6.12703256 15.4713488,6.82777674 15.0231628,7.30052093 C14.5749209,7.77326512 14.3398326,8.02230698 14.3178419,8.04742326 C14.1821023,8.20643721 14.045693,8.36545116 13.9080558,8.52368372 C14.1426977,8.41752558 14.3822512,8.31845581 14.6271628,8.22669767 C15.2218605,8.00422326 15.7895442,7.84303256 16.3301581,7.74301395 C16.7022698,7.67028837 17.131814,7.6432186 17.6180093,7.66124651 C18.4964093,7.69428837 19.1352558,7.86295814 19.7658977,8.50738605 C20.1671442,8.91650233 20.336093,9.42106047 20.2566698,10.1910698 C20.7085395,9.36647442 21.003293,8.87012093 21.2483721,7.90649302 C20.359814,7.85207442 19.6478512,7.69082791 19.1136,7.42297674 C18.5791256,7.15512558 18.2095256,6.85752558 18.0054698,6.53051163 C17.8013581,6.2036093 17.756093,5.88781395 17.8703442,5.58357209 C17.9844279,5.27933023 18.2399442,5.05925581 18.6363907,4.92290233 C18.8162791,4.85916279 19.0115163,4.83209302 19.2216558,4.84107907 C19.431907,4.85028837 19.6360186,4.88176744 19.834214,4.93652093 C20.0324651,4.99093953 20.2155349,5.05925581 20.3837023,5.14074419 C20.5517581,5.22273488 20.6900093,5.30891163 20.7980651,5.3996093 C21.1102326,5.6540093 21.3415256,5.9787907 21.4918326,6.37373023 C21.6421395,6.76906047 21.7047628,7.19815814 21.6807628,7.66124651 C21.9780279,7.65382326 22.2757953,7.62625116 22.5703814,7.58673488 C22.6806698,7.572 22.7944186,7.55620465 22.9037023,7.53672558 L22.9037023,7.86831628 C22.7929674,7.88037209 22.6792186,7.88874419 22.567814,7.89633488 C22.260893,7.91754419 21.9525767,7.9272 21.6448186,7.9203907 C21.5261581,8.70245581 21.3288558,9.16693953 20.9963163,9.82783256 C21.4252465,9.46375814 21.8929116,9.14941395 22.3966326,8.89908837 C22.5597767,8.81826977 22.7338047,8.73834419 22.9037023,8.6739907 L22.9037023,9.31172093 C22.5050233,9.36865116 22.0916093,9.51946047 21.7427721,9.7203907 C20.7020093,10.3198326 20.0255442,11.4368372 19.3968,12.4226791 C18.9408,13.1371535 18.4763163,14.1008372 18.6680372,14.8499721 C19.1506047,16.7363163 21.6875721,16.5228837 22.9037023,15.2037209 L22.9037023,16.0777116 C21.4247442,16.8204837 17.9608186,17.4927628 18.1858047,14.1057488 C18.1014698,14.1966698 18.0234977,14.2873674 17.9516651,14.3781767 C17.8794977,14.4693209 17.8013581,14.5643721 17.7171907,14.6643907 C15.4919442,17.4099907 11.1562605,20.864093 7.50267907,21.3640744 C6.4587907,21.5069023 5.46932093,21.4024744 4.78186047,20.8568372 C2.96132093,19.4107535 4.64327442,16.0792744 6.50104186,15.792614 C6.74132093,15.7655442 6.95430698,15.7905488 7.14083721,15.8675721 C7.32675349,15.9447628 7.43776744,16.0471256 7.47404651,16.174214 C7.54632558,16.364986 7.51847442,16.5518512 7.39283721,16.7330233 C7.26742326,16.9138605 7.13369302,17.0647814 6.92963721,17.1192 C6.48664186,17.2786605 6.12145116,16.9972465 6.01088372,16.6154791 C5.92576744,16.3222884 5.59110698,16.5964465 5.2903814,16.9923349 C4.51116279,18.0175256 4.49090233,19.3836837 5.6712,20.1212651 C6.54089302,20.664893 7.93551628,20.6302884 9.65832558,20.0496 C13.3899349,18.7916651 17.8076651,14.0718698 17.6907907,14.0377116 C16.8345488,14.6396651 15.5085209,15.5201302 13.9249674,15.6150698 C13.0114605,15.6698233 12.0324279,15.5057302 11.3065674,15.0371163 C10.9433302,14.8029767 10.6433302,14.4923721 10.4460279,14.0949767 C10.2171349,13.6336186 10.1365953,13.0227349 10.2166326,12.5148837 C10.352093,11.6773395 11.0205209,10.4968744 12.1508093,9.36011163 Z M18.7318326,12.3478326 C19.1901767,11.6815814 19.9736372,10.5829395 19.8972279,9.82102326 C19.8612837,9.46219535 19.7651163,9.16900465 19.6092837,8.94184186 C19.4527814,8.71512558 19.2516837,8.54472558 19.0052093,8.43125581 C18.7593488,8.31767442 18.507014,8.23825116 18.2486512,8.19270698 C17.9905674,8.1476093 17.7444279,8.12891163 17.5099535,8.13823256 C17.2757581,8.1476093 17.0986047,8.16089302 16.9786605,8.17892093 C16.1859907,8.32448372 15.4740279,8.55594419 14.8434419,8.87408372 C14.2129674,9.19194419 13.666493,9.5551814 13.204186,9.96385116 C12.7415442,10.3726884 12.3661395,10.8065302 12.0778605,11.2651535 C10.9173767,13.1116465 11.5021395,14.5010791 12.9850605,14.8314419 C15.0019535,15.2807442 17.5311628,13.8932651 18.7318326,12.3478326 Z M19.8794791,5.49499535 C19.6271442,5.46792558 19.419907,5.49973953 19.2577116,5.5903814 C19.0955721,5.68135814 18.9845023,5.8039814 18.9245023,5.9584186 C18.8642233,6.11263256 18.8580837,6.28303256 18.9064744,6.46928372 C18.9544186,6.65531163 19.0744744,6.83492093 19.266586,7.00733023 C19.4589767,7.17996279 19.7200186,7.3275907 20.0503814,7.45021395 C20.3808558,7.57294884 20.7922047,7.6432186 21.2845953,7.66124651 C21.3206512,7.38898605 21.3361674,7.12822326 21.293414,6.88470698 C21.1480186,6.05330233 20.6360372,5.61493953 19.8794791,5.49499535 Z M2.04446512,9.12502326 C2.29082791,9.07613023 2.54757209,9.01378605 2.81531163,8.93866047 C3.14706977,8.8464 3.44623256,8.74386977 3.71173953,8.6307907 C3.9771907,8.5179907 4.2151814,8.40295814 4.42526512,8.28586047 C5.24734884,7.80613953 5.78037209,7.27172093 6.15466047,6.66848372 C6.30926512,6.41910698 6.4375814,6.15806512 6.54753488,5.88390698 C6.64007442,5.45687442 7.36788837,5.40055814 7.0772093,6.09745116 C7.02072558,6.2324093 6.92852093,6.39884651 6.79797209,6.60563721 C6.53062326,7.02965581 6.19456744,7.41666977 5.81106977,7.72091163 C5.48466977,7.98022326 5.10022326,8.2399814 4.65784186,8.49929302 C4.18191628,8.7668093 3.60653023,9.00128372 2.93173953,9.20221395 C2.6475907,9.27973953 2.37214884,9.34353488 2.10664186,9.39337674 C1.84861395,9.4416 1.59058605,9.47849302 1.3292093,9.50221395 L1.3292093,9.23419535 C1.56541395,9.21265116 1.8116093,9.17140465 2.04446512,9.12502326 L2.04446512,9.12502326 Z" id="Fill-56" fill="#FEFEFE"></path>
                <path d="M0.428483721,0.112409302 L23.8044279,0.112409302 L23.9824186,0.112409302 L23.9824186,0.2904 L23.9824186,23.6665116 L23.9824186,23.8445023 L23.8044279,23.8445023 L0.428483721,23.8445023 L0.250493023,23.8445023 L0.250493023,23.6665116 L0.250493023,0.2904 L0.250493023,0.112409302 L0.428483721,0.112409302 Z M23.6264372,0.468390698 L0.606474419,0.468390698 L0.606474419,23.4885209 L23.6264372,23.4885209 L23.6264372,0.468390698 Z" id="Fill-57" fill="#2A3246"></path>
            </g>
        </g>
        <g id="Group" transform="translate(81.000000, 69.000000)" fill="#D8D8D8" fill-rule="nonzero" stroke="#2A3246">
            <rect id="Rectangle" transform="translate(7.778175, 7.778175) rotate(45.000000) translate(-7.778175, -7.778175) " x="7.27817459" y="-1.72182541" width="1" height="19" rx="0.5"></rect>
            <rect id="Rectangle-Copy-2" transform="translate(7.778175, 7.778175) scale(-1, 1) rotate(45.000000) translate(-7.778175, -7.778175) " x="7.27817459" y="-1.72182541" width="1" height="19" rx="0.5"></rect>
        </g>
        <path d="M184.526597,81.6351256 C184.073215,82.1216248 183.337564,82.1216248 182.884401,81.6351256 L180.340036,78.9049073 C179.886655,78.4186429 179.886655,77.6292557 180.340036,77.1429913 C180.793199,76.6564921 181.528851,76.6564921 181.982232,77.1429913 L183.498173,78.7694294 C183.612612,78.8919934 183.798385,78.8919934 183.913043,78.7694294 L188.017768,74.3648744 C188.470931,73.8783752 189.206582,73.8783752 189.659964,74.3648744 C189.877683,74.5984973 190,74.9154731 190,75.2458324 C190,75.5761916 189.877683,75.8931674 189.659964,76.1267903 L184.526597,81.6351256 Z" id="Path" fill="#FF0142"></path>
        <path d="M508.641368,125.763823 C506.946172,128.991775 503.181839,133.960621 500.030769,137.237542 C496.398063,141.175043 487.834331,146.559626 487.834331,146.559626 C487.173205,146.907405 485.338404,146.933389 484.833834,146.428709 L483.008008,144.603867 C482.631076,143.972268 482.461557,143.240732 483.008008,142.779025 L486.660657,140.040763 C487.278905,139.622028 487.981913,139.537082 488.486483,140.040763 L490.737105,142.289336 C491.266605,141.916572 499.720648,136.364096 504.423321,128.719947 L502.118852,126.416409 C501.614282,125.912728 501.700039,125.209175 502.118852,124.590568 L504.858089,120.940884 C505.362659,120.266312 506.180342,120.436204 506.683915,120.940884 L508.510738,122.765726 C509.226709,123.439298 509.019297,125.009302 508.641368,125.763823 L508.641368,125.763823 L508.641368,125.763823 Z M510.075305,121.462553 L507.205437,118.594373 C506.413681,117.801876 505.128323,117.801876 504.33557,118.594373 L500.030769,124.330732 C499.373631,125.301117 499.239013,126.406415 500.030769,127.198912 L501.78779,128.954798 C500.48548,130.703688 498.921911,132.610478 497.161899,134.369362 C495.171539,136.3581 492.957812,138.165952 490.967453,139.65101 L489.269265,137.955086 C488.477509,137.162589 487.371642,137.296504 486.399398,137.955086 L480.659663,142.257356 C479.69739,142.921934 479.866909,144.333039 480.659663,145.125536 L483.52953,147.992716 C485.115037,149.57771 487.176196,149.070033 489.269265,147.992716 C489.269265,147.992716 495.604313,144.438972 501.027943,139.018411 C506.129486,133.919647 510.075305,127.198912 510.075305,127.198912 C510.897973,124.937347 511.660812,123.046547 510.075305,121.462553 L510.075305,121.462553 L510.075305,121.462553 Z" id="phone" fill="#FF0142" transform="translate(495.500000, 133.500000) scale(-1, 1) translate(-495.500000, -133.500000) "></path>
        <path d="M448,142 C448,142.203 447.961,142.395 447.905,142.578 L439,133 L448,126 L448,142 L448,142 L448,142 Z M421.556,143.946 L430.58,134.33 L434,136.915 L437.272,134.314 L446.444,143.946 C446.301,143.979 421.699,143.979 421.556,143.946 L421.556,143.946 L421.556,143.946 Z M420,142 L420,126 L429,133 L420.095,142.578 C420.039,142.395 420,142.203 420,142 L420,142 L420,142 Z M447,124 L434,134 L421,124 L447,124 L447,124 L447,124 Z M446,122 L422,122 C419.791,122 418,123.791 418,126 L418,142 C418,144.209 419.791,146 422,146 L446,146 C448.209,146 450,144.209 450,142 L450,126 C450,123.791 448.209,122 446,122 L446,122 L446,122 Z" id="mail" fill="#FF0142"></path>
        <path d="M442.225,204.592593 L442.225,200.814815 L442.225,200.814815 L434.575,192 L420.553519,192 C419.143249,192 418,193.131241 418,194.527749 L418,223.472251 C418,224.868288 419.13593,226 420.546713,226 L439.678287,226 C441.084798,226 442.225,224.868918 442.225,223.493073 L442.225,220.962963 L452.416268,220.962963 C454.53358,220.962963 456.25,219.272704 456.25,217.186714 L456.25,208.368841 C456.25,206.283277 454.546611,204.592593 452.416268,204.592593 L442.225,204.592593 L442.225,204.592593 L442.225,204.592593 L442.225,204.592593 Z M440.95,220.962963 L440.95,223.489795 C440.95,224.180438 440.379186,224.740741 439.675051,224.740741 L420.549949,224.740741 C419.854754,224.740741 419.275,224.179512 419.275,223.487202 L419.275,194.512798 C419.275,193.832553 419.843312,193.259259 420.544361,193.259259 L433.3,193.259259 L433.3,199.548102 C433.3,200.957672 434.440483,202.074074 435.847339,202.074074 L440.95,202.074074 L440.95,204.592593 L430.758732,204.592593 C428.64142,204.592593 426.925,206.282851 426.925,208.368841 L426.925,217.186714 C426.925,219.272279 428.628389,220.962963 430.758732,220.962963 L440.95,220.962963 L440.95,220.962963 L440.95,220.962963 L440.95,220.962963 Z M434.575,193.888889 L434.575,199.544493 C434.575,200.246072 435.14958,200.814815 435.845842,200.814815 L440.567438,200.814815 L434.575,193.888889 L434.575,193.888889 L434.575,193.888889 Z M430.743066,205.851852 C429.338569,205.851852 428.2,206.985407 428.2,208.360318 L428.2,217.195238 C428.2,218.580625 429.350488,219.703704 430.743066,219.703704 L452.431934,219.703704 C453.836431,219.703704 454.975,218.570148 454.975,217.195238 L454.975,208.360318 C454.975,206.97493 453.824512,205.851852 452.431934,205.851852 L430.743066,205.851852 L430.743066,205.851852 L430.743066,205.851852 Z M447.325,212.148148 L447.325,209.62963 L452.425,209.62963 L452.425,208.37037 L446.05,208.37037 L446.05,217.185185 L447.325,217.185185 L447.325,213.407407 L451.15,213.407407 L451.15,212.148148 L447.325,212.148148 L447.325,212.148148 L447.325,212.148148 Z M430.75,210.888889 L430.75,217.185185 L432.025,217.185185 L432.025,213.407407 L434.568776,213.407407 C435.98054,213.407407 437.125,212.289526 437.125,210.888889 C437.125,209.49795 435.985278,208.37037 434.568776,208.37037 L430.75,208.37037 L430.75,210.888889 L430.75,210.888889 L430.75,210.888889 Z M432.025,209.62963 L432.025,212.148148 L434.57633,212.148148 C435.279759,212.148148 435.85,211.589207 435.85,210.888889 C435.85,210.193419 435.285608,209.62963 434.57633,209.62963 L432.025,209.62963 L432.025,209.62963 L432.025,209.62963 Z M438.4,208.37037 L438.4,217.185185 L442.218776,217.185185 C443.63054,217.185185 444.775,216.068783 444.775,214.659213 L444.775,210.896343 C444.775,209.501287 443.635278,208.37037 442.218776,208.37037 L438.4,208.37037 L438.4,208.37037 L438.4,208.37037 Z M439.675,209.62963 L439.675,215.925926 L442.22633,215.925926 C442.929759,215.925926 443.5,215.367172 443.5,214.666909 L443.5,210.888646 C443.5,210.193311 442.935608,209.62963 442.22633,209.62963 L439.675,209.62963 L439.675,209.62963 L439.675,209.62963 Z" id="pdf" fill="#FF0142"></path>
        <g id="alert-circle" transform="translate(583.000000, 210.000000)" fill="#808490" fill-rule="nonzero">
            <path d="M9,18 C4.02943725,18 0,13.9705627 0,9 C0,4.02943725 4.02943725,0 9,0 C13.9705627,0 18,4.02943725 18,9 C18,13.9705627 13.9705627,18 9,18 Z M9,16.3636364 C13.066824,16.3636364 16.3636364,13.066824 16.3636364,9 C16.3636364,4.93317593 13.066824,1.63636364 9,1.63636364 C4.93317593,1.63636364 1.63636364,4.93317593 1.63636364,9 C1.63636364,13.066824 4.93317593,16.3636364 9,16.3636364 Z M9.00026861,13.907738 C8.54825089,13.907738 8.18181818,13.5414254 8.18181818,13.0895561 C8.18181818,12.6376868 8.54825089,12.2713743 9.00026861,12.2713743 C9.45228625,12.2713743 9.81871895,12.6376868 9.81871895,13.0895561 C9.81871895,13.5414254 9.45228625,13.907738 9.00026861,13.907738 Z M8.18423542,4.08955614 L9.82113619,4.08955614 L9.82113619,10.6350107 L8.18423542,10.6350107 L8.18423542,4.08955614 Z" id="Shape"></path>
        </g>
        <g id="bxl-vk" transform="translate(493.000000, 275.000000)" fill="#FFFFFF" fill-rule="nonzero">
            <path d="M19.579,0.855 C19.719,0.39 19.579,0.049 18.917,0.049 L16.724,0.049 C16.166,0.049 15.911,0.344 15.771,0.668 C15.771,0.668 14.656,3.387 13.076,5.15 C12.566,5.663 12.333,5.825 12.055,5.825 C11.916,5.825 11.714,5.663 11.714,5.198 L11.714,0.855 C11.714,0.297 11.553,0.049 11.088,0.049 L7.642,0.049 C7.294,0.049 7.084,0.307 7.084,0.553 C7.084,1.081 7.874,1.203 7.955,2.691 L7.955,5.919 C7.955,6.626 7.828,6.755 7.548,6.755 C6.805,6.755 4.997,4.026 3.924,0.902 C3.715,0.295 3.504,0.05 2.944,0.05 L0.752,0.05 C0.125,0.05 0,0.345 0,0.669 C0,1.251 0.743,4.131 3.461,7.94 C5.273,10.541 7.824,11.951 10.148,11.951 C11.541,11.951 11.713,11.638 11.713,11.098 L11.713,9.132 C11.713,8.506 11.846,8.38 12.287,8.38 C12.611,8.38 13.169,8.544 14.47,9.797 C15.956,11.283 16.202,11.95 17.037,11.95 L19.229,11.95 C19.855,11.95 20.168,11.637 19.988,11.019 C19.791,10.404 19.081,9.509 18.139,8.45 C17.627,7.846 16.862,7.196 16.629,6.871 C16.304,6.452 16.398,6.267 16.629,5.895 C16.63,5.896 19.301,2.134 19.579,0.855 Z" id="Path"></path>
        </g>
        <g id="bx-left-arrow-alt" transform="translate(403.000000, 275.000000)" fill="#808490" fill-rule="nonzero">
            <polygon id="Path" points="8.121 12 3.828 7.707 13.414 7.707 13.414 5.707 3.828 5.707 8.121 1.414 6.707 0 0 6.707 6.707 13.414"></polygon>
        </g>
        <g id="arrow-copy-3" transform="translate(353.000000, 275.000000)">
            <rect id="Rectangle" x="0" y="0" width="12" height="12"></rect>
            <polygon id="Path" fill="#2A3246" fill-rule="nonzero" points="3.94587744 10.9458774 5 12 10 7 5 2 3.94587744 3.05412256 7.1462651 6.25451021 0 6.25451021 0 7.74548979 7.1462651 7.74548979"></polygon>
        </g>
        <g id="bx-left-arrow-alt-copy" transform="translate(450.000000, 282.000000) scale(-1, 1) translate(-450.000000, -282.000000) translate(443.000000, 275.000000)" fill="#808490" fill-rule="nonzero">
            <polygon id="Path" points="8.121 12 3.828 7.707 13.414 7.707 13.414 5.707 3.828 5.707 8.121 1.414 6.707 0 0 6.707 6.707 13.414"></polygon>
        </g>
        <g id="bxl-facebook" transform="translate(533.000000, 272.000000)" fill="#FFFFFF" fill-rule="nonzero">
            <path d="M6.397,17.997 L6.397,9.801 L9.162,9.801 L9.573,6.592 L6.397,6.592 L6.397,4.548 C6.397,3.622 6.655,2.988 7.984,2.988 L9.668,2.988 L9.668,0.127 C8.849,0.039 8.025,-0.003 7.201,-1.08420217e-19 C4.757,-1.08420217e-19 3.079,1.492 3.079,4.231 L3.079,6.586 L0.332,6.586 L0.332,9.795 L3.085,9.795 L3.085,17.997 L6.397,17.997 Z" id="Path"></path>
        </g>
        <g id="bxl-twitter" transform="translate(563.000000, 273.000000)" fill="#FFFFFF" fill-rule="nonzero">
            <path d="M17.633,3.997 C17.646,4.172 17.646,4.346 17.646,4.52 C17.646,9.845 13.593,15.981 6.186,15.981 C3.904,15.981 1.784,15.32 0,14.172 C0.324,14.209 0.636,14.222 0.973,14.222 C2.856,14.222 4.589,13.586 5.974,12.501 C4.203,12.464 2.719,11.304 2.207,9.708 C2.456,9.745 2.706,9.77 2.968,9.77 C3.329,9.77 3.692,9.72 4.029,9.633 C2.182,9.259 0.799,7.638 0.799,5.68 L0.799,5.63 C1.336,5.929 1.959,6.116 2.619,6.141 C1.534,5.419 0.823,4.184 0.823,2.787 C0.823,2.039 1.022,1.353 1.371,0.755 C3.354,3.198 6.335,4.795 9.677,4.97 C9.615,4.67 9.577,4.359 9.577,4.047 C9.577,1.827 11.373,0.019 13.605,0.019 C14.765,0.019 15.812,0.505 16.548,1.291 C17.458,1.116 18.33,0.779 19.104,0.318 C18.805,1.253 18.168,2.039 17.333,2.538 C18.144,2.45 18.93,2.226 19.652,1.914 C19.104,2.712 18.419,3.423 17.633,3.997 Z" id="Path"></path>
        </g>
        <path d="M543,129.5 C543,124.254 547.753,120 554,120 C558.973,120 564,124.254 564,129.5 C564,134.747 560.075,139 554,139 C553.107,139 551.244,138.898 550.413,138.725 L547,141 L547,137.456 C544.561,135.477 543,132.834 543,129.5 L543,129.5 L543,129.5 Z M550.637,140.736 C551.414,140.863 553.181,141 554,141 C561.18,141 566,135.657 566,129.375 C566,123.093 559.977,118 554,118 C546.811,118 541,123.093 541,129.375 C541,133.015 542.387,136.104 545,138.329 L545,144 L550.637,140.736 L550.637,140.736 L550.637,140.736 Z M567.949,127.139 C567.968,127.425 568,127.709 568,128 C568,128.636 567.938,129.259 567.849,129.874 C569.195,131.45 570,133.392 570,135.5 C570,138.834 568.008,141.761 565,143.456 L565,147 L561.587,144.725 C560.756,144.898 559.893,145 559,145 C556.41,145 555.034,144.222 553.154,142.929 C552.609,142.973 552.059,143 551.5,143 C551.102,143 550.712,142.972 550.32,142.949 C552.701,145.276 555.149,146.75 559,146.75 C559.819,146.75 560.618,146.676 561.395,146.549 L567,150 L567,144.329 C570.04,142.246 572,139.015 572,135.375 C572,132.131 570.439,129.211 567.949,127.139 L567.949,127.139 L567.949,127.139 Z M559.5,131 C560.329,131 561,130.329 561,129.5 C561,128.672 560.329,128 559.5,128 C558.671,128 558,128.672 558,129.5 C558,130.329 558.671,131 559.5,131 L559.5,131 L559.5,131 Z M547.5,131 C548.329,131 549,130.329 549,129.5 C549,128.672 548.329,128 547.5,128 C546.671,128 546,128.672 546,129.5 C546,130.329 546.671,131 547.5,131 L547.5,131 L547.5,131 Z M553.5,131 C554.329,131 555,130.329 555,129.5 C555,128.672 554.329,128 553.5,128 C552.671,128 552,128.672 552,129.5 C552,130.329 552.671,131 553.5,131 L553.5,131 L553.5,131 Z" id="comments" fill="#FF0142"></path>
        <polyline id="Path-2" stroke="#FF0142" fill-rule="nonzero" points="602 136.052573 615.964112 150 646 120"></polyline>
    </g>
</svg>